<svg width="76" height="90" fill="none" xmlns="http://www.w3.org/2000/svg"><path fill-rule="evenodd" clip-rule="evenodd" d="M40.99 23.578l1.825.212c1.78.217 3.96.901 5.43 1.829.118.075.17.128.285.207l.855.694a6.57 6.57 0 011.333 1.815c.131.26.197.406.298.724.079.235.21.583.232.835-.298-.145-3.433-.57-3.789-.614a37.178 37.178 0 00-4.188-.247c-.074-.15-.144-.56-.197-.742-.276-.94-.32-1.254-.697-2.213-.097-.234-.18-.437-.285-.654l-.72-1.245c-.136-.208-.272-.393-.381-.6zM70.958.5h1.802c.36.04.684.159.982.46.4.406.5.914.689 1.479.18.557.29 1.1.438 1.692.356 1.426.58 3.074.632 4.721v1.546a17.526 17.526 0 01-.329 2.929c-.224 1.108-.72 2.848-1.298 3.856-.105.18-.189.37-.303.56-.478.791-1 1.573-1.64 2.24-.074.08-.127.128-.202.203-.372.375-.736.738-1.148 1.056l-.483.38c-.259.172-.473.357-.754.507-.202.11-.334.208-.53.327-.746.442-1.58.756-2.404 1.025-.9.296-1.86.481-2.833.592-1.649.185-3.557.172-5.18-.07-.28-.045-.302-.098-.5.043l-.74.486c-.908.57-1.851 1.07-2.838 1.484-.28.115-.579.283-.872.35.052.229.18.335.267.551l.632 1.78c.245.844.36 1.776.36 2.876 0 .698-.132 1.206-.58 1.59a1.8 1.8 0 01-.622.313c-.281.071-.496.049-.83.023l-3.192-.597c-.631-.115-2.736-.393-3.364-.424l-4.192-.168c-.228.005-.28.044-.526.044-.763 0-1.921.04-2.636.133-1.052.137-2.46.181-3.535.336-.162.022-.381.04-.513.053-.197.026-.272.092-.438.092-.28 0-.57-.08-.803-.176-1.193-.495-1.24-2.38.07-2.982.33-.15 5.675-.697 6.39-.697-.044-.5-.623-1.984-.886-2.425l-.395-.672c-.078-.137-.149-.207-.232-.335a7.967 7.967 0 00-.22-.314c-.087-.12-.144-.194-.227-.305-.303-.406-.623-.826-.983-1.184-.122-.128-.14-.159-.232-.3l-.71.066a8.04 8.04 0 01-.715.058c-.908.04-1.908.402-2.636-.376-.65-.698-.535-1.899.232-2.455.413-.296.83-.314 1.47-.367.666-.057 1.438-.186 2.113-.208 1.702-.048 3.526-.044 5.206.089 2.565.198 5.372.91 7.644 2.142 2.315 1.254 1.342 1.484 2.609.967.145-.062.32-.137.482-.216.18-.084.294-.128.487-.208.662-.278 2.1-1.055 2.702-1.457-.114-.217-.215-.504-.316-.751a18.658 18.658 0 01-.75-2.359c-.4-1.563-.522-2.76-.522-4.474 0-1.149.246-2.487.535-3.357.347-1.051.768-2.071 1.386-2.99.07-.106.118-.203.188-.3.136-.2.272-.38.413-.57.272-.367.561-.707.886-1.034.315-.318.622-.68.969-.95.11-.088.158-.15.263-.23.443-.348.903-.732 1.386-1.024l.605-.37c.224-.116.408-.217.631-.35.193-.12.43-.203.632-.305a15.371 15.371 0 012.061-.834A23.42 23.42 0 0169.603.584L70.957.5zm-12.63 19.143c-.014-.16-.145-.424-.198-.579-.07-.203-.114-.384-.175-.6-.114-.407-.228-.765-.32-1.237-.377-1.89-.505-3.781.087-5.654a8.336 8.336 0 01.983-2.09l.623-.887c.078-.101.083-.106.17-.194.198-.203.426-.495.755-.8.092-.088.131-.097.223-.185a9.262 9.262 0 011.54-1.157l2.271-1.153c.202-.075.369-.137.566-.208 1.298-.446 2.285-.676 3.706-.896a25.95 25.95 0 011.372-.177l1.097-.049c.153-.009.197-.04.364-.04.1.429.232.84.324 1.273.443 2.186.531 2.963.531 5.287 0 .86-.1 1.638-.254 2.367-.075.353-.171.69-.26 1.051-.091.385-.223.663-.346 1.003-.184.512-.25.548-.394.914-.294.729-.847 1.391-1.312 2.001-.346.46-1.276 1.215-1.763 1.541-.153.107-.258.146-.407.248a3.537 3.537 0 01-.417.234c-.86.433-1.03.455-1.903.75-.526.178-1.61.403-2.188.46l-1.255.088c.026-.11.943-1.095 1.088-1.24l.522-.619c.824-1.06 1.978-2.707 2.583-3.838.07-.128.131-.234.201-.367l2.496-5.075c.469-1.104-.522-2.266-1.316-2.266-.517 0-.732.031-1.197.354-.237.163-.443.459-.566.742-.07.168-.123.309-.188.463l-.926 1.98c-.25.52-1.42 2.72-1.714 3.153-.47.702-.728 1.206-1.298 1.97l-1.15 1.466c-.254.327-1.635 1.75-1.955 1.966zM32.281 68.758c0 .747.097 1.542.281 2.094.092.287.215.587.364.826.132.212.342.495.526.658l.702.481c.232.115.561.261.846.336.97.247 2.728.327 3.825.186.925-.124 1.933-.181 2.85-.283 3.399-.376 6.289-.53 9.578.574 1.916.645 3.574 1.829 4.99 3.255.584.588.746.809 1.636.809.382 0 .803-.248 1.053-.5.11-.114.25-.295.316-.459.193-.481.153-1.148-.14-1.546-.488-.662-1.479-1.506-2.136-2.076-.33-.282-.702-.52-1.053-.781-.947-.711-2.07-1.241-3.17-1.683-1.194-.482-2.54-.808-3.825-.99-.175-.022-.35-.035-.544-.066-.193-.026-.377-.009-.57-.04-1.403-.212-4.947.062-6.161.195-.588.066-1.206.141-1.833.203-.781.075-3.189.41-3.89-.11-.812-.601-.154-2.13.245-2.66.167-.22.347-.459.535-.649.452-.446 1.066-1.02 1.592-1.351.15-.093.228-.137.369-.243.688-.521 1.508-.848 2.271-1.237.619-.318 1.456-.592 2.136-.8.162-.052.28-.101.456-.154 1.759-.504 3.158-.676 5.035-.835.684-.057 2.556.142 3.254.283 1.214.243 2.57.534 3.688 1.042l.829.354c.771.393 1.574.742 2.245 1.303.684.57.943.755 1.508 1.43.812.977 2.32.813 2.842-.348.285-.623.132-1.162-.254-1.683l-.882-.994c-.75-.627-1.495-1.25-2.328-1.753-.316-.195-.64-.367-.978-.535a22.175 22.175 0 00-6.784-2.146 26.252 26.252 0 00-2.737-.235l-1.408.058c-.465.07-.89.093-1.346.159-.408.062-.85.128-1.272.199-1.833.318-3.416.887-5.118 1.563-1.412.561-3.065 1.537-4.236 2.5a11.586 11.586 0 00-1.67 1.679l-.474.631c-.439.61-.737 1.285-.965 2.023-.084.278-.198.95-.198 1.316zM5.096 33.666c0 .336.153.734.285.941l.579.645c.829.822 1.697 1.594 2.662 2.244l3.236 1.696c3.158 1.144 5.956 1.25 9.315.994l3.824-.411c.807-.093 3.377-.583 3.811.547.053.133.11.451.088.628-.027.19-.057.424-.105.596-.053.199-.119.318-.193.5-.562 1.355-2.526 2.72-3.71 3.356l-.921.464c-.628.318-1.33.583-1.987.83-2.088.782-4.372 1.153-6.627 1.153-2.052 0-5.17-.663-7.082-1.599-.114-.057-.25-.11-.368-.163-.965-.42-2.167-1.17-2.917-1.94-.096-.097-.175-.163-.263-.269-.438-.552-.86-1.073-1.74-1.073-.185 0-.466.075-.602.137-.451.207-.947.693-.947 1.258 0 .734.062.888.496 1.432l.451.525c.101.12.206.164.325.287l1.719 1.387c.254.19.496.323.772.49 1.074.654 2.232 1.153 3.425 1.55.324.111.583.222.908.319 1.618.503 3.657.897 5.376.897 1.421 0 2.232.013 3.631-.19.351-.053.606-.098.943-.16 2.434-.463 5.144-1.342 7.285-2.623l.692-.41c.566-.341 1.04-.778 1.553-1.185l.311-.26c.189-.168.369-.367.548-.552l.531-.575c.215-.23.395-.516.575-.772.039-.062.074-.098.118-.168a5.88 5.88 0 001.03-2.858c.049-.645-.008-.526-.004-1.03.005-.542-.21-1.444-.39-1.815l-.298-.52c-.487-.77-1.268-1.184-2.176-1.419-.684-.172-1.758-.295-2.517-.19-.188.023-.373-.004-.557.014l-3.192.349c-.737.101-1.386.088-2.123.199-.491.07-1.706.106-2.258.106-1.588 0-3.908-.265-5.381-.849-1.509-.6-2.364-1.077-3.667-2.053-.131-.097-.166-.142-.285-.243l-1.074-1.007c-.5-.508-.592-.809-1.557-.809-.645 0-1.175.416-1.386.941-.057.142-.162.468-.162.658zM3.754 63.714c0-.684.136-1.064.6-1.528.602-.6.742-.654 1.435-1.056.316-.185.316-.167.675-.304 1.825-.69 3.956-.385 5.666.27 1.11.423 1.728.834 2.649 1.519l1.07 1.011c.097.124.114.15.228.26.43.438 1.132 1.71 1.368 2.31.167.42.351 1.184.351 1.74-.732 0-1.434-.114-2.118-.163-.82-.053-3.285-.424-4-.565-.337-.062-.613-.12-.96-.177-.868-.15-3.881-.874-4.609-1.095-.53-.168-1.136-.455-1.491-.795-.29-.283-.215-.102-.548-.596-.145-.221-.316-.482-.316-.83zM.5 63.427c0 1.33.228 1.97.903 2.986.246.375.465.627.772.94.097.094.11.107.22.19.644.509 1.039.827 1.876 1.184l.584.274 2.074.535c1.048.282 3.118.702 4.28.896 3.772.632 6.184.853 10.288.866.325.004.479-.044.772-.04 2.132.01 5.259-.331 7.346-.68.487-.08.846-.177 1.132-.455.495-.486.56-.71.56-1.365 0-.388-.2-.76-.45-1.02-.672-.707-1.474-.477-2.216-.349l-2.039.278c-.653.093-1.49.133-2.105.217l-1.657.093c-.264 0-.351.04-.566.044-.189.004-.386-.005-.575-.005-.232.005-.307.044-.565.044 0-1.382-.65-3.41-1.338-4.558-.373-.627-.987-1.546-1.504-2.054-.123-.119-.154-.19-.263-.304a7.412 7.412 0 00-.303-.31c-.118-.114-.188-.145-.307-.265-.131-.132-.184-.172-.324-.287-.706-.578-.956-.768-1.72-1.223l-.767-.415c-1.557-.884-4.254-1.608-6.135-1.449-.847.07-1.176 0-2.105.256-1.246.345-2.184.755-3.241 1.493-.241.168-.421.34-.658.526a.72.72 0 00-.145.137c-.035.04-.026.035-.057.07-.513.575-.964 1.003-1.298 1.846-.118.305-.245.522-.329.857a4.71 4.71 0 00-.14 1.047zm46.109-21.563c2.464 0 6.994.769 9.415 1.378.412.102 2.35.574 2.64.698.456.199.921.481 1.298.786.54.437.939 1.091.733 1.82-.43 1.52-2.456 2.566-4.035 2.738-.947.102-1.465.049-2.43-.092-.548-.08-1.609-.35-2.1-.592-.439-.212-.921-.398-1.355-.685-.557-.375-.583-.362-1.197-.843-.728-.575-1.746-1.71-2.171-2.571-.667-1.356-.741-2.509-.798-2.637zm-13.433-1.109c0 .588.114.915.438 1.241.303.31.588.49 1.062.535.412.035.895-.11 1.333-.194.474-.089.886-.133 1.381-.204l4.373-.393c.526-.009 1.061 0 1.587 0 .114 1.356.316 2.248.83 3.472l.218.521c.312.627.377.756.794 1.37.215.317.689.945.956 1.205.162.16.316.385.53.574 1.198 1.065 2.198 1.816 3.671 2.496.176.08.316.137.514.22 1.324.557 2.92 1.008 4.78 1.008 1.539 0 3.166-.362 4.42-.998.702-.358 1.588-.932 2.14-1.493.912-.923 1.78-2.324 1.78-3.702 0-1.188-.254-2.08-.876-3.047-.408-.632-1.18-1.294-1.79-1.723-.232-.163-1.11-.667-1.39-.777l-1.061-.283c-.912-.225-1.82-.495-2.794-.711-.49-.11-.934-.172-1.425-.287-.504-.12-.934-.19-1.478-.274-.465-.07-.978-.181-1.49-.26-2.886-.447-5.842-.575-8.938-.588-.312-.004-.443.04-.733.04-.245 0-.53-.014-.772 0-.18.009-.17.035-.363.04-1.33.04-2.066.18-3.303.287-.96.084-1.833.243-2.745.388-.54.084-.811.155-1.132.46-.245.238-.517.614-.517 1.077zm-20.02 39.151l2.86.442c.36.049.662.058 1.03.11.316.045.706.08.996.102.772.066 1.86.168 2.605.168.245 0 .294.04.526.04.057.256.136.508.193.746.07.274.136.513.22.769.074.225.135.468.223.715.083.252.18.464.285.694.053.115.092.216.136.318.022.048.048.115.075.168l.798 1.413c.131.217.276.371.39.592-.39 0-.605-.053-.939-.084-.57-.049-2.122-.318-2.63-.464-2.04-.605-2.952-.852-4.597-2.138l-.54-.52c-.083-.107-.166-.169-.258-.27-.28-.318-.631-.88-.833-1.254a5.51 5.51 0 01-.294-.73l-.246-.817zM26.212 89.5h-1.044c-.67-.004-1.263-.018-1.508-.044l-1.128-.093c-1.938-.283-2.148-.274-4.078-.773-.658-.168-.64-.185-1.245-.384-.79-.26-1.522-.618-2.25-1.012-1.1-.596-2.311-1.599-3.083-2.592l-.662-.937c-.592-1.108-.544-.932-.996-2.274-.39-1.162-.438-2.32-.438-3.534 0-.994.916-1.842 1.93-1.577.096.027.188.04.267.058l4.144.706c2.1.3 3.771.407 5.947.407l1.587-.044c.237.004.298-.031.487-.04l2.035-.124c.938-.075 1.956-.247 2.89-.327.675-.057 1.381-.22 1.969.11.175.098.302.2.43.345.495.597.631 1.378.144 2.023-.162.217-.39.424-.644.543-.351.168-2.513.367-3.17.451l-3.246.3c.013.173.11.468.158.619.381 1.258.965 2.336 1.771 3.379l1.193 1.426c.114.093.097.075.294.07l1.355-.114c.25-.03.43-.03.671-.062.908-.123 1.307-.106 1.912.636.522.645.364 1.807-.465 2.337-.39.243-1.092.296-1.644.353-.632.066-1.29.075-1.908.128-.276.022-.943.036-1.675.04z" fill="#fff"/><path fill-rule="evenodd" clip-rule="evenodd" d="M10.63 28.251c0 .685.04 1.18.18 1.829.105.464.272.927.46 1.303.422.848.961 1.63 1.65 2.27.1.093.144.106.245.208.97.95 2.89 1.895 4.263 1.895.697 0 1.548.053 2.17-.195 1.812-.72 2.575-1.294 3.39-3.14.628-1.41.5-2.805.312-4.262l-.092-1.626c0-1.162.294-1.833 1.245-2.398.193-.115.264-.155.5-.234.855-.283 1.588-.42 2.421-.01.171.085.307.177.421.314.118.146.22.292.311.469.373.742.465 1.546.39 2.592-.074 1.025-.5 2.553-1.096 3.445-.197.3-.447.619-.447 1.109 0 1.555 2.1 2.447 3.114.76.329-.548.574-.87.837-1.533.71-1.789.851-2.588.851-4.682 0-1.263-.386-2.791-1.105-3.763-.105-.141-.171-.283-.29-.406-.758-.809-1.473-1.33-2.56-1.6-1.58-.397-2.689-.255-4.228.358-.917.367-1.921 1.091-2.522 1.886-.943 1.246-1.105 2.646-1.061 4.183l.096 1.26c.035.255.01.538.031.83.022.269.08.512.08.821 0 1.396-.698 2.584-2.159 2.584-.934 0-1.648-.292-2.376-.844-.58-.437-1.057-.95-1.395-1.63-.325-.662-.377-1.161-.377-1.912 0-1.285.649-2.478 1.495-3.335a6.234 6.234 0 011.175-.905c.461-.256 1.193-.442 1.448-.632 1.377-1.029.64-3.003-.943-3.003-.316 0-.491.084-.728.172-.206.075-.43.159-.645.252-.522.238-1.267.649-1.693 1.002-.951.795-1.434 1.184-2.153 2.341a8.207 8.207 0 00-1.215 4.227zm30.4 51.205v.495c0 2.014.838 4.65-.92 5.671-1.022.592-2.825.905-3.623-.318-.535-.826-.5-1.745-.5-2.73 0-1.219.478-2.57 1.088-3.493.25-.376.456-.632.456-1.18 0-.817-.733-1.599-1.667-1.599-.894 0-1.328.672-1.74 1.317-.088.136-.137.256-.22.397-.368.605-.833 2.036-.974 2.747-.293 1.493-.289 3.326.14 4.828.238.835.514 1.32.979 1.926a6.1 6.1 0 00.715.715c.49.38.206.168.635.424.79.477 1.834.764 2.864.764 1.14 0 2.566-.441 3.487-1.002.153-.093.285-.186.438-.292 1.246-.87 2.302-2.544 2.302-4.527v-.658c0-1.422-.614-3.997.338-4.951.206-.208.33-.363.597-.504 1.105-.57 2.385-.053 3.306.57.96.645 1.864 1.846 1.864 3.207 0 1.475-.697 3.166-1.855 4.032-.715.539-.908.676-1.824.994a1.504 1.504 0 00-.46.23c-1.452 1.148-.518 2.981.841 2.981.886 0 2.057-.64 2.715-1.082a8.38 8.38 0 00.495-.358c.18-.132.33-.274.496-.402.21-.163.693-.684.877-.918.224-.288.724-.977.899-1.312.925-1.74 1.381-3.724.868-5.685-.368-1.409-.93-2.434-1.964-3.471a8.44 8.44 0 00-2.105-1.529c-1.465-.76-3.974-1.117-5.434-.23-.316.195-.36.16-.86.49-.342.23-.614.5-.864.814-.337.424-.36.415-.68.954-.359.605-.71 1.841-.71 2.685zm-8.38-26.439c0 1.475.28 3.224.627 4.615l.623 1.997c.684 1.647 3.144 1.24 3.144-.588 0-.437-1.1-3.348-1.1-5.658 0-1.153.012-2.045.539-3.025.096-.177.17-.243.294-.402.609-.782 2.07-.804 3.074-.221.079.048.215.137.294.199.75.6 2.346 2.637 3.148 3.264.114.088.154.145.25.238.088.075.18.142.272.217 1.07.843 1.825 1.312 2.995 1.903.106.053.22.115.325.164.925.42 2.28.919 3.258 1.188.513.146 1.018.256 1.562.393.543.141 1.127.225 1.662.336.565.114 4.359.631 5.28.627.653-.005 1.18.08 1.956.08 1.092 0 2.122-1.436 1.065-2.713a1.658 1.658 0 00-.294-.238c-.517-.318-1.087-.26-1.872-.287-.798-.022-3.202-.292-3.92-.398-1.851-.27-3.496-.57-5.272-1.166-.974-.327-2.096-.768-2.978-1.303-.794-.481-.855-.512-1.614-1.082-.386-.287-1.083-.95-1.407-1.29l-1.018-1.148c-.719-.715-.715-.844-1.649-1.617-1.495-1.25-4.218-1.373-5.964-.538-.982.472-1.93 1.462-2.394 2.424-.084.173-.176.345-.26.561a9.96 9.96 0 00-.626 3.468zM27.48 50.8c0 .565.127.865.32 1.44.315.944.736 2.853.736 3.85 0 1.326.053 1.635-.377 2.938-.22.658-.89 1.25-1.513 1.387-.763.163-1.67-.04-2.25-.521-.526-.438-.723-.716-1.14-1.193-.092-.106-.184-.176-.285-.282l-.833-.924c-.733-.742-.794-.768-1.504-1.395l-.343-.27c-.227-.185-.442-.327-.688-.494a15.363 15.363 0 00-3.048-1.608c-1.907-.764-2.521-.88-4.5-1.37-.74-.18-3.218-.591-3.99-.653-1.447-.11-2.873-.331-4.35-.331-.768 0-1.588.697-1.588 1.559 0 .552.079.843.456 1.219.136.132.233.234.412.327.5.251 1.373.154 1.974.22.403.049.934.093 1.35.12.43.026.904.088 1.342.123.86.075 2.882.433 3.776.623.869.186 1.456.38 2.312.623 1.056.3 2.604.998 3.547 1.59.171.106.303.168.456.278.15.106.268.195.434.305.325.217.711.565 1 .835.294.274.597.477.934.905l2.123 2.288c.535.455 1.105.853 1.855 1.087 1.1.34 2.636.353 3.82-.018.509-.154 1.013-.46 1.43-.773.157-.12.258-.19.403-.331.772-.79 1.03-1.228 1.452-2.23.048-.124.065-.138.105-.261.522-1.758.487-2.063.487-3.896 0-1.374-.364-2.875-.645-3.984-.088-.353-.403-1.453-.548-1.745a1.764 1.764 0 00-.509-.631c-.807-.61-2.009-.34-2.438.592-.062.132-.176.437-.176.6zM10.468 73.719c0 .406.255.927.46 1.135l.448.326c.447.239 2.811.526 3.412.583 1.938.186 3.806.416 5.938.416.583 0 .96.048 1.508 0 .46-.036 1.105-.005 1.583 0l1.505-.084a49.619 49.619 0 004.35-.415c.671-.098 1.118-.27 1.46-.91.47-.888-.03-2.058-1.035-2.293-.517-.119-1.68.115-2.377.173-4.038.335-6.981.446-11.029.008-1.206-.128-2.17-.234-3.355-.432-.916-.155-1.706-.354-2.39.335-.28.283-.478.716-.478 1.157zm22.668-38.047c0 1.042.702 1.682 1.75 1.682.342 0 .605-.084.926-.136.912-.15 2.982-.394 3.876-.438 1.088-.053 2.158-.123 3.259-.123l3.736.172c.377.04.776.084 1.184.119.737.062 1.588.185 2.276.327l2.202.446c.693 0 1.25-.415 1.478-1.011.267-.68.175-1.277-.33-1.785-.477-.486-1.71-.636-2.42-.755-.465-.084-.908-.172-1.342-.248l-4.267-.459c-.86-.075-2.307-.044-3.17-.044-1.873 0-3.619.186-5.325.375-.846.098-1.675.23-2.49.363-.764.123-1.343.79-1.343 1.515zM3.592 72.16c0 .666.438 1.263 1.035 1.501.166.066.298.088.465.146.157.048.333.106.5.154.469.133 1.53.305 2.118.447 1.776.42 2.78-1.644 1.596-2.757-.377-.353-.623-.349-1.18-.49l-2.07-.46c-.579-.145-.29-.18-.96-.18-.439 0-.82.27-1.048.499a1.786 1.786 0 00-.456 1.14zm51.073-35.177c0 1.215 1.092 1.546 2.065 1.736.154.027.334.049.522.088.189.036.333.084.522.129 1.053.27 1.947.675 2.758-.345.593-.746.33-1.723-.184-2.164-.32-.27-.772-.429-1.215-.539-.82-.212-1.355-.287-2.153-.46-.6-.123-1.333-.264-1.864.372-.175.216-.21.18-.315.503-.057.181-.136.464-.136.68z" fill="#fff"/></svg>