<svg width="69" height="60" fill="none" xmlns="http://www.w3.org/2000/svg"><g id="svg" filter="url(#filter0_d_1_552)" fill-rule="evenodd" clip-rule="evenodd" fill="#fff"><path d="M19.818 27.925l.145-1.265c.148-1.236.617-2.748 1.253-3.767.052-.082.088-.119.142-.198l.476-.593c.36-.377.772-.687 1.244-.925.179-.09.279-.137.497-.206.16-.055.4-.147.572-.162-.1.207-.39 2.382-.421 2.629a26.07 26.07 0 00-.17 2.905c-.103.052-.384.1-.508.137-.645.192-.86.222-1.517.484-.16.067-.3.125-.448.198l-.854.498c-.142.095-.27.19-.411.265zM4 7.137v-1.25c.027-.25.109-.475.315-.682.278-.277.626-.347 1.014-.477.381-.125.754-.201 1.16-.305a15.6 15.6 0 013.236-.438h1.06c.701.025 1.383.098 2.006.228.76.156 1.953.5 2.643.901.124.073.254.13.385.21.541.332 1.077.694 1.534 1.138.055.051.088.088.14.14.257.258.505.51.723.797l.26.334c.119.18.246.329.349.524.075.14.142.23.224.368.302.517.517 1.095.702 1.667.203.624.33 1.29.406 1.965a14.703 14.703 0 01-.049 3.593c-.03.195-.066.21.03.347l.333.514c.391.63.733 1.284 1.018 1.969.078.194.193.401.239.605.157-.037.23-.125.378-.186l1.22-.438c.578-.17 1.217-.25 1.971-.25.478 0 .826.092 1.09.402.085.104.175.28.215.433.048.194.033.343.015.575l-.409 2.214c-.078.438-.27 1.899-.29 2.334l-.115 2.908c.003.158.03.195.03.365 0 .53.027 1.333.09 1.829.095.73.125 1.706.23 2.452.016.112.028.264.037.356.018.137.064.188.064.304 0 .195-.055.395-.121.557-.34.827-1.632.86-2.044-.049-.103-.228-.478-3.937-.478-4.433-.342.03-1.36.432-1.662.615l-.46.274c-.094.055-.143.103-.23.16a5.35 5.35 0 00-.215.153c-.082.06-.134.1-.21.158-.278.21-.565.432-.81.682-.088.085-.11.097-.206.161l.045.493c.021.146.033.356.04.496.027.63.275 1.323-.258 1.828-.478.45-1.302.371-1.683-.161-.203-.286-.215-.575-.251-1.02-.04-.462-.127-.997-.143-1.466-.033-1.18-.03-2.446.06-3.61.137-1.78.625-3.728 1.47-5.304.859-1.606 1.016-.93.662-1.81a7.243 7.243 0 00-.148-.334c-.058-.125-.088-.204-.142-.338a15.81 15.81 0 00-1-1.874c-.148.079-.345.149-.514.219-.524.213-1.063.377-1.617.52-1.071.277-1.892.362-3.066.362-.787 0-1.705-.17-2.301-.371-.72-.24-1.42-.532-2.05-.961-.072-.05-.139-.082-.205-.131-.137-.095-.26-.189-.391-.286a6.462 6.462 0 01-.708-.615c-.218-.219-.467-.432-.651-.672-.06-.076-.103-.11-.158-.183-.239-.307-.502-.626-.702-.961l-.254-.42a7.779 7.779 0 00-.24-.438c-.081-.134-.139-.298-.208-.438a10.738 10.738 0 01-.573-1.43 16.415 16.415 0 01-.774-3.879L4 7.137zM17.12 15.9c-.109.01-.29.1-.396.137-.14.048-.264.079-.412.121-.279.08-.524.159-.848.223-1.295.261-2.591.35-3.875-.061a5.684 5.684 0 01-1.431-.682l-.609-.432a1.003 1.003 0 01-.133-.118c-.14-.137-.34-.296-.548-.524-.06-.064-.067-.09-.127-.155a6.418 6.418 0 01-.793-1.068l-.79-1.576-.143-.392c-.306-.9-.463-1.585-.614-2.57a18.214 18.214 0 01-.121-.953l-.034-.76c-.006-.107-.027-.137-.027-.253.294-.07.575-.161.872-.225 1.498-.307 2.031-.368 3.623-.368.59 0 1.124.07 1.623.176.242.052.472.119.72.18.264.064.455.155.688.24.351.128.375.173.627.274.499.204.953.587 1.37.91.316.24.833.885 1.057 1.222.073.107.1.18.17.283.073.113.1.168.16.29.297.596.312.714.515 1.32a9.14 9.14 0 01.315 1.518l.06.87c-.075-.018-.75-.654-.85-.755l-.424-.362c-.727-.572-1.856-1.372-2.63-1.792-.089-.048-.161-.09-.252-.14l-3.478-1.73c-.757-.326-1.553.362-1.553.912 0 .36.02.508.242.83.112.165.315.308.508.393.115.049.212.085.318.131l1.356.642c.358.173 1.865.986 2.162 1.19.481.325.826.505 1.35.9l1.005.797c.224.177 1.199 1.135 1.347 1.357zm33.664 18.067c.511 0 1.056-.067 1.435-.195a2.284 2.284 0 001.017-.617l.33-.487c.079-.161.178-.39.23-.587.17-.672.224-1.892.127-2.653-.085-.642-.124-1.342-.194-1.977-.257-2.358-.363-4.363.394-6.645.442-1.33 1.253-2.48 2.231-3.462.403-.405.554-.517.554-1.135 0-.264-.17-.556-.342-.73a1.125 1.125 0 00-.315-.219c-.33-.134-.787-.106-1.06.097-.454.338-1.032 1.026-1.422 1.482-.194.228-.358.487-.536.73-.487.657-.85 1.436-1.153 2.2-.33.827-.554 1.761-.679 2.653-.015.121-.024.243-.045.377-.018.134-.006.262-.027.395-.146.974.042 3.432.133 4.275.045.407.097.836.14 1.271.05.542.28 2.212-.076 2.699-.412.563-1.46.107-1.823-.17-.151-.116-.315-.24-.445-.371-.306-.314-.7-.74-.926-1.105-.064-.103-.094-.158-.167-.255-.357-.478-.581-1.047-.847-1.576-.218-.43-.406-1.01-.548-1.482-.037-.113-.07-.195-.106-.316-.345-1.22-.464-2.19-.572-3.493-.04-.474.096-1.774.193-2.257.167-.843.367-1.783.715-2.559l.242-.575c.27-.535.509-1.092.893-1.558.39-.474.518-.654.98-1.046.67-.563.558-1.61-.238-1.972-.427-.197-.797-.09-1.154.177l-.68.611c-.43.52-.858 1.038-1.203 1.616a8.62 8.62 0 00-.366.678 15.518 15.518 0 00-1.471 4.707c-.085.59-.14 1.28-.16 1.898l.039.977c.048.322.063.617.109.934.042.283.087.59.136.882.218 1.272.608 2.37 1.072 3.55a12.03 12.03 0 001.713 2.94c.351.431.723.809 1.15 1.158l.433.329c.418.304.881.511 1.387.67.19.057.65.136.902.136zM26.732 52.826c.23 0 .503-.106.645-.197l.442-.402c.563-.575 1.093-1.177 1.538-1.847l1.162-2.245c.784-2.19.857-4.131.681-6.462l-.281-2.653c-.064-.56-.4-2.342.375-2.643a1.14 1.14 0 01.43-.061c.13.018.29.04.409.073.136.036.218.082.342.134.93.39 1.865 1.752 2.3 2.573l.318.64c.218.434.4.921.57 1.378.535 1.448.79 3.033.79 4.596 0 1.424-.455 3.587-1.096 4.914-.04.079-.076.173-.112.255-.288.67-.802 1.503-1.33 2.023-.066.067-.111.122-.184.183-.378.304-.736.596-.736 1.208 0 .127.052.322.094.417.143.313.476.657.863.657.503 0 .608-.043.98-.344l.361-.313c.082-.07.112-.143.197-.226l.95-1.192c.13-.177.221-.344.337-.536.448-.745.79-1.548 1.062-2.376.076-.225.151-.404.218-.63.345-1.122.615-2.537.615-3.73 0-.985.009-1.548-.13-2.518-.037-.244-.067-.42-.11-.654-.317-1.689-.92-3.569-1.798-5.054l-.281-.48c-.233-.393-.533-.721-.812-1.077l-.178-.216c-.115-.131-.252-.256-.379-.38l-.393-.369c-.158-.149-.354-.273-.53-.398-.042-.028-.067-.052-.115-.082a4 4 0 00-1.959-.715c-.442-.034-.36.006-.705.003-.372-.003-.99.146-1.244.27l-.358.207c-.526.338-.81.88-.971 1.51-.118.474-.203 1.22-.13 1.746.015.13-.003.258.009.386l.239 2.215c.07.51.06.961.136 1.472.049.341.073 1.184.073 1.567 0 1.101-.182 2.71-.582 3.733-.411 1.047-.738 1.64-1.407 2.543-.067.092-.097.116-.167.198l-.69.745c-.348.347-.554.411-.554 1.08 0 .448.285.816.645.962.097.04.32.112.451.112zm20.595.931c-.47 0-.73-.094-1.048-.416-.412-.417-.448-.515-.723-.995-.127-.22-.115-.22-.21-.469-.471-1.265-.263-2.744.186-3.93.29-.77.572-1.2 1.04-1.838l.694-.742c.085-.067.103-.08.179-.158.3-.299 1.171-.786 1.583-.95.288-.115.811-.243 1.193-.243 0 .508-.079.995-.112 1.47-.037.568-.29 2.278-.388 2.774-.042.234-.081.426-.12.666-.104.602-.6 2.693-.752 3.198-.115.368-.311.788-.544 1.034-.194.2-.07.15-.41.38-.15.1-.33.22-.568.22zm-.197 2.258c.911 0 1.35-.159 2.046-.627.258-.17.43-.322.645-.535.064-.067.073-.077.13-.153.349-.447.566-.72.812-1.302l.187-.404.367-1.44c.193-.726.481-2.162.614-2.969.433-2.616.584-4.29.594-7.137.003-.225-.03-.331-.028-.535.006-1.479-.227-3.648-.466-5.096-.054-.338-.121-.587-.312-.785-.333-.344-.487-.39-.935-.39-.267 0-.52.14-.7.314-.484.465-.326 1.022-.239 1.536l.191 1.415c.064.453.09 1.034.148 1.46l.064 1.15c0 .183.027.244.03.393.003.13-.003.267-.003.398.003.161.03.213.03.393-.947 0-2.337.45-3.124.928-.43.258-1.06.684-1.407 1.043-.082.085-.13.107-.21.183-.075.07-.142.137-.211.21-.079.082-.1.13-.182.213-.09.09-.118.127-.197.225-.396.49-.526.663-.838 1.192l-.285.533c-.605 1.08-1.102 2.95-.993 4.256.049.587 0 .815.176 1.46.236.864.518 1.515 1.023 2.248.115.168.233.292.36.457.04.051.049.06.094.1.027.024.024.018.049.04.393.356.687.669 1.265.9.209.082.357.17.587.228.194.052.497.098.718.098zM32.35 24.028c0-1.71.527-4.852.945-6.532.07-.286.394-1.63.478-1.831.137-.317.33-.64.54-.9.299-.375.747-.652 1.246-.509 1.042.298 1.76 1.704 1.878 2.799.07.657.033 1.016-.064 1.685-.055.38-.24 1.117-.406 1.458-.145.304-.272.639-.469.94-.257.386-.248.404-.578.83-.394.505-1.172 1.211-1.762 1.506-.93.463-1.72.514-1.807.554zm-.76 9.319c.403 0 .627-.08.851-.305.212-.21.337-.407.367-.736.024-.286-.076-.62-.133-.925-.061-.328-.091-.614-.14-.958l-.27-3.033c-.005-.365 0-.736 0-1.102.93-.079 1.542-.219 2.38-.575l.357-.152c.43-.216.518-.261.939-.55.218-.15.648-.478.826-.664.11-.112.264-.219.394-.368.73-.83 1.244-1.524 1.71-2.546.055-.122.094-.22.152-.356.381-.919.69-2.026.69-3.316 0-1.068-.248-2.197-.684-3.067-.245-.487-.639-1.101-1.023-1.485-.633-.632-1.593-1.235-2.537-1.235-.815 0-1.426.177-2.09.609-.432.283-.886.818-1.18 1.241-.112.161-.457.77-.533.965l-.193.736c-.155.632-.34 1.262-.488 1.938-.075.34-.118.648-.197.988-.081.35-.13.648-.187 1.026-.049.322-.124.678-.179 1.034-.306 2.002-.393 4.052-.402 6.2-.003.216.027.308.027.508 0 .17-.01.368 0 .536.006.125.024.118.027.252.027.922.124 1.433.197 2.291.057.666.166 1.272.266 1.905.058.374.106.562.315.784.164.17.42.36.739.36zm26.835 13.888l.302-1.984c.034-.25.04-.46.076-.715.03-.219.055-.49.07-.69.045-.536.115-1.29.115-1.808 0-.17.027-.203.027-.365.176-.04.348-.094.512-.134.187-.048.35-.094.526-.152.155-.051.321-.094.49-.155.173-.058.319-.125.476-.198.079-.036.148-.063.218-.094.033-.015.079-.033.115-.052l.969-.553c.148-.092.254-.192.406-.271 0 .27-.037.42-.058.651-.033.395-.218 1.472-.318 1.825-.415 1.415-.584 2.048-1.465 3.189l-.357.374c-.073.058-.115.115-.185.18a5.273 5.273 0 01-.86.577 3.751 3.751 0 01-.5.204l-.56.17zM65 38.178v.724c-.003.465-.012.876-.03 1.046l-.064.782c-.194 1.345-.188 1.49-.53 2.83-.115.456-.127.444-.263.863-.179.548-.424 1.056-.693 1.561-.409.764-1.096 1.603-1.777 2.139l-.642.46c-.76.41-.639.377-1.56.69-.795.27-1.588.304-2.421.304-.681 0-1.262-.636-1.08-1.338.018-.067.027-.131.039-.186l.484-2.875c.206-1.457.279-2.616.279-4.125l-.03-1.102c.002-.164-.022-.206-.028-.337l-.085-1.412c-.051-.651-.17-1.357-.224-2.005-.04-.468-.151-.958.076-1.366.066-.122.136-.21.236-.298.409-.344.945-.438 1.387-.1.148.112.29.27.372.447.115.243.251 1.743.309 2.2l.206 2.25c.118-.008.32-.075.423-.109a7.001 7.001 0 002.316-1.229l.978-.827c.064-.08.052-.067.049-.204l-.08-.94c-.02-.174-.02-.298-.042-.466-.084-.63-.072-.906.436-1.326.442-.362 1.239-.253 1.602.322.166.271.203.758.242 1.141.045.438.051.895.088 1.324.015.191.024.654.027 1.162z"/><path d="M23.02 48.987c.47 0 .809-.027 1.254-.125.318-.073.636-.188.893-.32a5.36 5.36 0 001.556-1.143c.063-.07.073-.1.142-.17.651-.673 1.299-2.005 1.299-2.958 0-.483.036-1.074-.133-1.505-.494-1.257-.887-1.786-2.153-2.352-.965-.435-1.922-.347-2.921-.216l-1.114.064c-.796 0-1.256-.204-1.644-.864a1.404 1.404 0 01-.16-.347c-.194-.593-.288-1.102-.006-1.68a.84.84 0 01.214-.292c.1-.082.2-.152.321-.216.509-.258 1.06-.322 1.777-.27.703.051 1.75.346 2.362.76.206.137.424.31.76.31a1.143 1.143 0 00.52-2.16c-.375-.228-.596-.398-1.05-.58-1.226-.493-1.774-.59-3.21-.59-.865 0-1.912.267-2.578.766-.097.073-.194.119-.279.2-.554.527-.911 1.023-1.096 1.777-.272 1.096-.175 1.865.245 2.933.252.636.748 1.333 1.293 1.75.854.654 1.813.766 2.867.736l.863-.067c.175-.024.369-.006.569-.021.184-.016.351-.055.563-.055.957 0 1.77.484 1.77 1.497 0 .648-.199 1.144-.577 1.649-.3.401-.651.733-1.117.967-.454.225-.797.262-1.311.262-.881 0-1.699-.45-2.286-1.038a4.318 4.318 0 01-.62-.815c-.176-.32-.303-.828-.433-1.004a1.123 1.123 0 00-2.059.654c0 .219.058.34.118.505.052.143.11.298.173.447.163.362.445.88.687 1.175.545.66.811.994 1.604 1.493.8.505 1.85.843 2.897.843zm35.096-21.089h.339c1.38 0 3.188-.581 3.887.639.406.709.62 1.959-.218 2.513-.566.37-1.196.346-1.87.346-.836 0-1.763-.331-2.395-.754-.258-.174-.433-.316-.809-.316-.56 0-1.096.508-1.096 1.156 0 .62.46.921.903 1.207.093.061.175.095.272.153.415.255 1.396.578 1.883.675 1.023.204 2.28.2 3.309-.098a3.486 3.486 0 001.32-.678c.127-.1.396-.374.49-.496.26-.34.115-.143.29-.44.328-.549.524-1.273.524-1.988 0-.79-.302-1.78-.687-2.418-.063-.107-.127-.198-.2-.304-.596-.864-1.743-1.598-3.103-1.598h-.45c-.975 0-2.74.426-3.394-.234-.142-.143-.248-.228-.345-.414-.39-.766-.037-1.655.39-2.294.442-.666 1.266-1.293 2.198-1.293 1.011 0 2.17.484 2.764 1.287.37.496.463.63.681 1.266.04.122.088.228.158.32.787 1.006 2.043.358 2.043-.585 0-.614-.439-1.427-.742-1.883a5.765 5.765 0 00-.245-.344c-.09-.124-.188-.228-.275-.343-.112-.146-.47-.481-.63-.609-.197-.155-.67-.502-.9-.624-1.192-.642-2.551-.958-3.895-.602-.966.256-1.668.645-2.38 1.363-.414.414-.784.94-1.047 1.46-.52 1.016-.766 2.757-.158 3.77.134.219.11.25.336.596.158.237.343.426.557.6.291.234.285.249.654.47.415.25 1.263.494 1.84.494zm-18.121 5.814c1.01 0 2.21-.195 3.163-.435l1.368-.433c1.13-.474.851-2.18-.402-2.18-.3 0-2.295.763-3.878.763-.79 0-1.402-.01-2.074-.374-.121-.067-.166-.119-.275-.204-.536-.423-.551-1.436-.152-2.133.034-.055.094-.149.137-.204.411-.52 1.807-1.627 2.237-2.184.06-.08.1-.107.163-.174.052-.06.097-.124.149-.188.578-.742.899-1.266 1.304-2.078.037-.073.079-.152.112-.225.288-.642.63-1.582.815-2.26.1-.356.175-.706.269-1.084.097-.377.154-.781.23-1.153.079-.392.433-3.024.43-3.663-.003-.453.054-.818.054-1.356a1.097 1.097 0 00-2.022-.536c-.218.36-.178.755-.197 1.3-.015.553-.2 2.22-.272 2.719-.185 1.284-.39 2.425-.8 3.657-.223.675-.526 1.454-.892 2.066-.33.55-.351.593-.742 1.12-.197.267-.65.75-.884.976l-.787.705c-.49.5-.578.496-1.108 1.144-.857 1.038-.942 2.927-.37 4.138.325.681 1.003 1.339 1.663 1.661.118.058.236.122.384.18a6.756 6.756 0 002.377.435zm-1.52 3.586c.387 0 .593-.088.987-.222.648-.219 1.955-.51 2.64-.51.908 0 1.12-.037 2.013.26.45.153.856.618.95 1.05.112.53-.027 1.16-.357 1.561-.3.365-.49.502-.817.791-.073.064-.121.128-.194.198l-.633.578c-.508.508-.526.55-.956 1.044l-.185.237c-.127.158-.224.307-.34.477a10.708 10.708 0 00-1.101 2.115c-.524 1.323-.602 1.75-.938 3.121-.125.514-.406 2.233-.449 2.769-.075 1.004-.227 1.992-.227 3.018 0 .532.479 1.101 1.069 1.101.378 0 .578-.055.836-.316.09-.095.16-.162.224-.286.172-.347.105-.953.15-1.37.034-.28.065-.647.083-.936.018-.299.06-.627.084-.931.052-.597.297-2 .427-2.62.127-.602.26-1.01.427-1.603.206-.733.684-1.807 1.09-2.461.073-.119.115-.21.19-.317.073-.103.134-.185.21-.3.148-.226.387-.494.572-.695.187-.203.327-.413.62-.648l1.569-1.472c.311-.371.584-.767.744-1.287.233-.764.242-1.828-.012-2.65-.106-.353-.315-.703-.53-.992-.082-.11-.13-.179-.227-.28-.542-.535-.841-.714-1.529-1.006-.084-.034-.093-.046-.178-.074-1.205-.361-1.414-.337-2.67-.337-.942 0-1.971.252-2.73.447-.243.06-.997.28-1.197.38a1.21 1.21 0 00-.433.353c-.417.56-.233 1.394.406 1.692.09.042.3.121.412.121zM54.184 49.1c.278 0 .635-.177.778-.32l.223-.31c.164-.31.36-1.95.4-2.367.127-1.345.285-2.64.285-4.12 0-.404.033-.666 0-1.046-.024-.32-.003-.767 0-1.098l-.058-1.044a34.874 34.874 0 00-.284-3.018c-.067-.465-.185-.776-.624-1.013a1.1 1.1 0 00-1.571.718c-.082.36.078 1.165.118 1.65.23 2.801.306 4.843.006 7.65a36.27 36.27 0 01-.297 2.328c-.106.636-.242 1.183.23 1.658.194.195.49.332.794.332zM28.106 33.374c.715 0 1.154-.487 1.154-1.214 0-.237-.058-.42-.094-.642-.103-.633-.27-2.069-.3-2.69-.036-.754-.085-1.496-.085-2.26l.119-2.592c.027-.261.057-.538.081-.821a14.62 14.62 0 01.224-1.58l.306-1.526c0-.481-.284-.867-.693-1.026-.466-.185-.875-.121-1.223.229-.333.331-.436 1.186-.518 1.679-.057.322-.118.63-.17.93l-.314 2.961c-.052.596-.03 1.6-.03 2.2 0 1.299.127 2.51.257 3.693.066.587.157 1.162.248 1.728.085.53.542.93 1.038.93zM53.115 53.87a1.13 1.13 0 001.03-.718c.044-.116.06-.207.099-.323.033-.11.073-.23.106-.346.09-.326.209-1.062.306-1.47.287-1.232-1.126-1.929-1.89-1.107-.241.261-.238.432-.335.818l-.315 1.436c-.1.402-.124.2-.124.666 0 .305.184.57.342.727.16.159.478.317.78.317zM29.006 18.44c.832 0 1.059-.758 1.19-1.434.017-.106.032-.23.06-.362.024-.13.057-.23.087-.362.185-.73.464-1.35-.236-1.913-.511-.411-1.18-.229-1.483.127-.185.223-.294.536-.37.843-.145.57-.196.94-.314 1.494-.085.417-.182.925.254 1.293.149.122.124.146.345.219.124.04.318.094.466.094z"/></g><defs><filter id="filter0_d_1_552" x=".152" y=".138" width="68.695" height="59.725" filterUnits="userSpaceOnUse" color-interpolation-filters="sRGB"><feFlood flood-opacity="0" result="BackgroundImageFix"/><feColorMatrix in="SourceAlpha" values="0 0 0 0 0 0 0 0 0 0 0 0 0 0 0 0 0 0 127 0" result="hardAlpha"/><feOffset/><feGaussianBlur stdDeviation="1.924"/><feComposite in2="hardAlpha" operator="out"/><feColorMatrix values="0 0 0 0 1 0 0 0 0 1 0 0 0 0 1 0 0 0 1 0"/><feBlend in2="BackgroundImageFix" result="effect1_dropShadow_1_552"/><feBlend in="SourceGraphic" in2="effect1_dropShadow_1_552" result="shape"/></filter></defs></svg>