<svg width="36" height="36" fill="none" xmlns="http://www.w3.org/2000/svg"><rect width="36" height="36" rx="9" fill="#641CFE"/><path d="M5.411 16.63c.282.475.692.855 1.18 1.094.232.114.33.399.22.638a.459.459 0 01-.619.226 3.692 3.692 0 01-.532-.324c.51 1.555 1.924 2.603 3.517 2.606h.028a5.084 5.084 0 01-.018-.795c.206-2.55 2.293-4.502 4.777-4.466h2.642a.471.471 0 00.464-.479c0-.792.624-1.434 1.393-1.434h1.393c.256 0 .464.214.464.478a.471.471 0 01-.464.478h-1.393a.471.471 0 00-.464.479c0 .792-.624 1.434-1.393 1.434h-2.642c-1.995-.036-3.676 1.524-3.85 3.57a3.967 3.967 0 00.263 1.687l.011.027a3.785 3.785 0 002.47 2.235l.034.01a3.208 3.208 0 00.391.079 3.697 3.697 0 00.537.044 3.687 3.687 0 002.979-1.55 6.502 6.502 0 01-.632-.473.488.488 0 01-.06-.674.455.455 0 01.653-.062 5.444 5.444 0 004.616 1.22c1.638-.327 3.047-1.395 3.837-2.909a3.87 3.87 0 01-.56-1.152.48.48 0 01.313-.592.462.462 0 01.576.319c.36 1.257 1.501 2.104 2.773 2.056 1.271-.047 2.35-.976 2.621-2.257.27-1.28-.335-2.588-1.473-3.176-.06.279-.139.552-.237.818a.46.46 0 01-.602.271.483.483 0 01-.264-.62 4.832 4.832 0 00.302-1.394c.008-.115.015-.23.015-.346 0-2.074-1.3-3.91-3.217-4.544.146.228.276.466.389.713a.49.49 0 01-.032.488.46.46 0 01-.432.204.467.467 0 01-.38-.293c-1.014-2.24-3.514-3.32-5.776-2.496-.343.121-.67.284-.976.484a.456.456 0 01-.642-.14.487.487 0 01.136-.662c.07-.048.143-.089.215-.133a3.103 3.103 0 00-3.059.185c.215.196.408.417.574.66a.49.49 0 01.046.48.465.465 0 01-.385.278.46.46 0 01-.423-.212 2.84 2.84 0 00-.824-.8h-.004c-1.209-.774-2.79-.475-3.654.69.184.055.363.124.536.207a.484.484 0 01.071.833.453.453 0 01-.47.03 2.712 2.712 0 00-2.375-.002 2.851 2.851 0 00-1.513 1.886 3.59 3.59 0 01.773-.207.467.467 0 01.525.406.476.476 0 01-.394.54 2.718 2.718 0 00-1.182.48l-.006.004c-1.21.861-1.558 2.544-.793 3.838.002.007.003.012.006.017z" fill="#fff"/><path d="M24.73 25.652c2.433 0 4.411-1.609 4.411-3.587 0-.275-.04-.55-.118-.813a3.6 3.6 0 01-3.142-.756c-1.086 1.844-2.963 3.041-5.05 3.22a4.367 4.367 0 002.832 1.826c.351.075.709.112 1.068.11zm-4.967-1.943a6.367 6.367 0 01-1.9-.475.357.357 0 01-.05-.01c-.046-.02-.092-.045-.139-.066-.018-.009-.038-.014-.057-.024a4.71 4.71 0 01-.542.653c.025.772.638 1.385 1.388 1.387.415-.01.813.169 1.09.487l2.686 3.168a.5.5 0 00.371.171.501.501 0 00.496-.507v-2.111a5.069 5.069 0 01-3.343-2.674z" fill="#fff"/></svg>