<svg width="36" height="36" fill="none" xmlns="http://www.w3.org/2000/svg"><rect width="36" height="36" rx="9" fill="#641CFE"/><path d="M24.161 12.231l-4.928-1.893V8.662h2.75c.39 0 .622-.435.406-.76l-.29-.434a.488.488 0 010-.542l.29-.434a.488.488 0 00-.407-.76h-2.75a.732.732 0 10-1.464 0v4.606l-4.929 1.893h11.322zM6.732 15.16c.605 0 .635.61.635.733 0 .122-.03.733-.635.733h23.536c-.522 0-.538-.658-.538-.733 0-.075.016-.732.538-.732a.732.732 0 100-1.465H6.732a.733.733 0 000 1.465zm11.741 10.788a.733.733 0 00-.733.732V30h1.465v-3.32a.733.733 0 00-.732-.732zM24.088 30h6.18a.732.732 0 00.732-.733V18.09h-6.912V30zm2.509-8.69a.733.733 0 011.465 0v.976a.733.733 0 01-1.465 0v-.977zm0 3.905a.733.733 0 011.465 0v.977a.733.733 0 01-1.465 0v-.977z" fill="#fff"/><path d="M14.322 30h1.953v-3.32a2.2 2.2 0 012.198-2.197 2.2 2.2 0 012.197 2.197V30h1.953V18.09h-8.3V30zm4.947-8.69a.733.733 0 011.465 0v.976a.732.732 0 11-1.465 0v-.977zm-3.003 0a.732.732 0 111.465 0v.976a.733.733 0 01-1.465 0v-.977zM6 29.267c0 .405.328.733.733.733h6.124V18.09H6v11.177zm2.755-7.958a.733.733 0 011.465 0v.977a.733.733 0 01-1.465 0v-.977zm0 3.906a.733.733 0 011.465 0v.977a.733.733 0 01-1.465 0v-.977z" fill="#fff"/></svg>