<svg width="41" height="30" fill="none" xmlns="http://www.w3.org/2000/svg"><g id="Vector" filter="url(#filter0_d_1_977)" fill="#fff"><path d="M25.605 16.195l-2.663 2.418c-1.08.981-2.98 1.002-4.084 0l-2.663-2.418-9.566 8.685c.356.15.749.238 1.166.238h26.21c.417 0 .81-.089 1.166-.238l-9.566-8.685z"/><path d="M34.005 4.882H7.795c-.417 0-.81.089-1.166.238l10.222 9.282.002.001v.002l3.324 3.018c.354.319 1.093.319 1.446 0l3.323-3.018.001-.002.002-.001L35.171 5.12a3.008 3.008 0 00-1.166-.238zM5.297 6.299A2.309 2.309 0 005 7.411V22.59c0 .4.113.775.297 1.112l9.583-8.7L5.297 6.3zm31.206 0L26.92 15l9.582 8.701a2.31 2.31 0 00.297-1.112V7.41a2.31 2.31 0 00-.297-1.112z"/></g><defs><filter id="filter0_d_1_977" x=".9" y=".782" width="40" height="28.436" filterUnits="userSpaceOnUse" color-interpolation-filters="sRGB"><feFlood flood-opacity="0" result="BackgroundImageFix"/><feColorMatrix in="SourceAlpha" values="0 0 0 0 0 0 0 0 0 0 0 0 0 0 0 0 0 0 127 0" result="hardAlpha"/><feOffset/><feGaussianBlur stdDeviation="2.05"/><feComposite in2="hardAlpha" operator="out"/><feColorMatrix values="0 0 0 0 1 0 0 0 0 1 0 0 0 0 1 0 0 0 1 0"/><feBlend in2="BackgroundImageFix" result="effect1_dropShadow_1_977"/><feBlend in="SourceGraphic" in2="effect1_dropShadow_1_977" result="shape"/></filter></defs></svg>