<svg width="16" height="16" fill="none" xmlns="http://www.w3.org/2000/svg"><path d="M8.018 3.94c2.214 0 4.042 1.828 4.042 4.042a4.044 4.044 0 01-4.042 4.043 4.021 4.021 0 01-4.043-4.043A4.044 4.044 0 018.018 3.94zm0 6.68c1.441 0 2.601-1.161 2.601-2.638a2.596 2.596 0 00-2.601-2.601C6.54 5.38 5.38 6.54 5.38 7.982a2.633 2.633 0 002.637 2.637zm5.132-6.821c0 .527-.421.95-.949.95a.945.945 0 01-.949-.95c0-.528.422-.95.95-.95.527 0 .948.422.948.95zm2.672.95c.07 1.3.07 5.202 0 6.503-.07 1.266-.351 2.355-1.265 3.305-.914.914-2.04 1.195-3.305 1.265-1.3.07-5.203.07-6.504 0-1.266-.07-2.355-.351-3.305-1.265-.914-.95-1.195-2.04-1.265-3.305-.07-1.3-.07-5.203 0-6.504.07-1.266.351-2.39 1.265-3.305C2.393.53 3.483.248 4.748.178c1.3-.07 5.203-.07 6.504 0 1.266.07 2.39.351 3.305 1.265.914.914 1.195 2.04 1.265 3.305zm-1.687 7.874c.422-1.02.316-3.48.316-4.64 0-1.126.106-3.587-.316-4.641-.281-.668-.809-1.23-1.477-1.477-1.054-.422-3.515-.316-4.64-.316-1.16 0-3.622-.106-4.641.316a2.712 2.712 0 00-1.512 1.477c-.422 1.054-.316 3.515-.316 4.64 0 1.16-.106 3.622.316 4.641.281.703.809 1.23 1.512 1.512 1.02.422 3.48.316 4.64.316 1.126 0 3.587.106 4.641-.316.668-.281 1.23-.809 1.477-1.512z" fill="#fff"/></svg>