<svg width="37" height="38" fill="none" xmlns="http://www.w3.org/2000/svg"><g filter="url(#filter0_d_1_978)"><path d="M32.066 25.55l-3.916-3.908c-1.398-1.396-3.776-.838-4.335.977-.42 1.256-1.818 1.953-3.077 1.674-2.797-.698-6.573-4.326-7.272-7.257-.42-1.256.42-2.651 1.678-3.07 1.818-.558 2.378-2.93.98-4.326l-3.916-3.907c-1.12-.977-2.797-.977-3.776 0L5.775 8.384c-2.657 2.791.28 10.188 6.852 16.747 6.573 6.558 13.985 9.629 16.782 6.838l2.657-2.652c.979-1.116.979-2.791 0-3.768z" fill="#fff"/></g><defs><filter id="filter0_d_1_978" x=".7" y=".9" width="36.2" height="36.2" filterUnits="userSpaceOnUse" color-interpolation-filters="sRGB"><feFlood flood-opacity="0" result="BackgroundImageFix"/><feColorMatrix in="SourceAlpha" values="0 0 0 0 0 0 0 0 0 0 0 0 0 0 0 0 0 0 127 0" result="hardAlpha"/><feOffset/><feGaussianBlur stdDeviation="2.05"/><feComposite in2="hardAlpha" operator="out"/><feColorMatrix values="0 0 0 0 1 0 0 0 0 1 0 0 0 0 1 0 0 0 1 0"/><feBlend in2="BackgroundImageFix" result="effect1_dropShadow_1_978"/><feBlend in="SourceGraphic" in2="effect1_dropShadow_1_978" result="shape"/></filter></defs></svg>