<svg width="36" height="36" fill="none" xmlns="http://www.w3.org/2000/svg"><rect width="36" height="36" rx="9" fill="#641CFE"/><path d="M15.52 18.12a3.467 3.467 0 01-.06-.64c0-.36.053-.686.16-.98.12-.293.26-.553.42-.78.173-.24.367-.453.58-.64.213-.2.42-.38.62-.54.347-.28.647-.546.9-.8.267-.253.4-.52.4-.8a.855.855 0 00-.32-.7c-.2-.173-.52-.26-.96-.26-.56 0-.953.133-1.18.4a1.43 1.43 0 00-.32.92h-3.42v-.5c0-.76.147-1.4.44-1.92.293-.533.673-.96 1.14-1.28a4.817 4.817 0 011.62-.72 7.72 7.72 0 011.84-.22c.587 0 1.16.073 1.72.22.573.147 1.08.38 1.52.7a3.3 3.3 0 011.08 1.22c.28.493.42 1.093.42 1.8-.027.387-.1.74-.22 1.06a3.5 3.5 0 01-.44.86 4.847 4.847 0 01-.64.78c-.24.24-.5.487-.78.74-.307.294-.593.6-.86.92-.253.307-.38.694-.38 1.16h-3.28zm1.7.86c.267 0 .52.04.76.12.253.08.473.207.66.38.2.16.36.373.48.64.12.253.18.56.18.92 0 .373-.06.694-.18.96-.12.267-.28.487-.48.66-.187.174-.407.3-.66.38a2.08 2.08 0 01-.76.14c-.28 0-.547-.046-.8-.14a1.902 1.902 0 01-.68-.38c-.2-.173-.36-.393-.48-.66s-.18-.587-.18-.96c0-.36.06-.666.18-.92.12-.267.28-.48.48-.64.2-.173.427-.3.68-.38.253-.08.52-.12.8-.12zm4.381 4.192c.007-.138.026-.273.058-.405.053-.223.135-.417.244-.583.118-.164.243-.304.376-.42a2.42 2.42 0 01.454-.31c.161-.093.316-.173.463-.243.256-.121.482-.242.676-.361.203-.117.325-.263.366-.436a.544.544 0 00-.094-.48c-.098-.138-.283-.239-.556-.304-.346-.083-.61-.059-.79.073a.911.911 0 00-.334.521l-2.116-.506.074-.31c.113-.47.298-.845.557-1.123.26-.287.559-.494.895-.623a3.065 3.065 0 011.11-.205c.392-.002.783.043 1.17.136.364.087.708.218 1.033.391.333.176.612.396.836.659a2.1 2.1 0 01.488.915c.1.347.098.739-.007 1.176a2.381 2.381 0 01-.293.624c-.112.174-.245.33-.4.467a3.064 3.064 0 01-.512.387c-.184.113-.381.227-.592.343a7.118 7.118 0 00-.669.442c-.202.152-.338.372-.407.661l-2.03-.486zm.925.784c.165.04.316.102.452.187.145.087.262.198.352.333.1.129.168.284.203.467.036.175.028.373-.026.596-.055.231-.14.42-.253.568-.114.147-.246.26-.395.337-.141.08-.296.125-.465.137a1.32 1.32 0 01-.491-.026 1.46 1.46 0 01-.474-.205 1.194 1.194 0 01-.564-.816 1.483 1.483 0 01.03-.62 1.36 1.36 0 01.249-.543c.114-.147.244-.256.392-.325.15-.078.308-.122.477-.134.168-.012.34.003.513.044zm-12.67-3.495a1.333 1.333 0 01-.047-.242 1.096 1.096 0 01.024-.381 1.51 1.51 0 01.13-.315c.058-.098.123-.187.198-.267.074-.085.146-.161.216-.23.122-.12.227-.234.314-.34.093-.108.133-.215.123-.322a.328.328 0 00-.15-.256c-.083-.058-.208-.08-.377-.063-.214.022-.36.088-.436.199a.55.55 0 00-.087.364l-1.309.13-.019-.19a1.49 1.49 0 01.095-.752 1.41 1.41 0 01.387-.533c.171-.146.369-.259.593-.338.224-.079.455-.13.695-.154.225-.023.447-.017.667.018.225.034.427.104.608.21.185.1.338.242.46.425.126.178.202.402.23.673a1.446 1.446 0 01-.18.76 1.862 1.862 0 01-.215.323 8.26 8.26 0 01-.27.313 4.305 4.305 0 00-.294.384.678.678 0 00-.1.459l-1.256.125zm.684.264a.92.92 0 01.295.017c.1.021.19.061.267.12a.649.649 0 01.208.227c.056.092.09.207.104.345a.895.895 0 01-.032.374.72.72 0 01-.396.442.881.881 0 01-.597.06.723.723 0 01-.484-.354.895.895 0 01-.105-.36.821.821 0 01.033-.36.73.73 0 01.405-.435c.094-.04.195-.065.302-.076z" fill="#fff"/></svg>