<svg width="16" height="16" fill="none" xmlns="http://www.w3.org/2000/svg"><path d="M13.484 2.445c1.477 1.477 2.391 3.41 2.391 5.52 0 4.289-3.586 7.805-7.91 7.805-1.3 0-2.567-.352-3.727-.95L.125 15.875l1.09-4.043A7.814 7.814 0 01.16 7.93C.16 3.64 3.676.125 7.965.125a7.68 7.68 0 015.52 2.32zm-5.52 11.989c3.587 0 6.575-2.918 6.575-6.47 0-1.757-.738-3.374-1.969-4.605A6.41 6.41 0 008 1.461c-3.586 0-6.504 2.918-6.504 6.469 0 1.23.352 2.425.984 3.48l.176.246-.668 2.39 2.461-.667.211.14a6.502 6.502 0 003.305.915zm3.587-4.852c.176.105.316.14.351.246.07.07.07.457-.105.914-.176.457-.95.88-1.3.914-.634.106-1.126.07-2.356-.492-1.97-.844-3.235-2.812-3.34-2.918-.106-.14-.774-1.055-.774-2.039 0-.95.493-1.406.668-1.617a.66.66 0 01.528-.246h.351c.14 0 .281-.035.457.351.14.387.563 1.336.598 1.442.035.105.07.21 0 .351-.352.739-.774.703-.563 1.055.774 1.3 1.512 1.758 2.672 2.32.176.106.282.07.422-.035.106-.14.492-.598.598-.773.14-.211.281-.176.457-.106.176.07 1.125.528 1.336.633z" fill="#fff"/></svg>