<svg width="76" height="90" viewBox="0 0 76 90" fill="none" xmlns="http://www.w3.org/2000/svg">
<path fill-rule="evenodd" clip-rule="evenodd" d="M40.9909 23.5782L42.8152 23.7902C44.5957 24.0066 46.7753 24.6912 48.2444 25.6188C48.3628 25.6938 48.4154 25.7469 48.5295 25.8264L49.3846 26.5198C49.9284 27.0454 50.3757 27.6461 50.7178 28.3351C50.8494 28.5957 50.9152 28.7415 51.016 29.0595C51.095 29.2936 51.2265 29.6425 51.2484 29.8943C50.9502 29.7485 47.8146 29.3245 47.4594 29.2803C46.1438 29.1302 44.7229 29.033 43.2713 29.033C43.1968 28.8828 43.1266 28.4721 43.074 28.291C42.7977 27.3502 42.7538 27.0366 42.3767 26.0781C42.2802 25.844 42.1969 25.6408 42.0916 25.4244L41.3724 24.1789C41.2365 23.9713 41.1005 23.7858 40.9909 23.5782ZM70.9567 0.5L72.7591 0.5C73.1187 0.539752 73.4432 0.659007 73.7414 0.959355C74.1405 1.36571 74.2414 1.87365 74.4299 2.43901C74.6097 2.99553 74.7194 3.53881 74.8685 4.13067C75.2237 5.55732 75.4474 7.20481 75.5 8.85231V10.3982C75.4649 11.4229 75.3597 12.4167 75.1711 13.3266C74.9474 14.4352 74.4519 16.1755 73.873 17.1825C73.7677 17.3636 73.6844 17.5535 73.5704 17.7435C73.0924 18.5341 72.5705 19.3159 71.9302 19.9828C71.8557 20.0623 71.8031 20.1109 71.7285 20.186C71.3557 20.5614 70.9918 20.9236 70.5795 21.2416L70.0971 21.6215C69.8384 21.7937 69.6235 21.9793 69.3428 22.1294C69.1411 22.2399 69.0095 22.337 68.8122 22.4563C68.0667 22.898 67.2334 23.2116 66.409 23.481C65.5099 23.7769 64.5495 23.9624 63.576 24.0729C61.927 24.2584 60.0193 24.2451 58.3967 24.0022C58.1161 23.958 58.0941 23.905 57.8968 24.0464L57.1556 24.5322C56.2479 25.102 55.305 25.6011 54.3183 26.0163C54.0376 26.1311 53.7394 26.299 53.4456 26.3652C53.4982 26.5949 53.6254 26.7009 53.7131 26.9173L54.3446 28.6973C54.5902 29.5409 54.7042 30.4729 54.7042 31.5727C54.7042 32.2706 54.5726 32.7785 54.1253 33.1628C53.9762 33.2865 53.7218 33.419 53.5026 33.4764C53.2219 33.5471 53.007 33.525 52.6737 33.4985L49.4811 32.9022C48.8496 32.7873 46.7446 32.5091 46.1175 32.4782L41.925 32.3103C41.6969 32.3147 41.6443 32.3545 41.3987 32.3545C40.6357 32.3545 39.4779 32.3942 38.7631 32.487C37.7106 32.6239 36.3028 32.6681 35.2284 32.8227C35.0661 32.8448 34.8469 32.8624 34.7153 32.8757C34.5179 32.9022 34.4434 32.9684 34.2767 32.9684C33.9961 32.9684 33.7066 32.8889 33.4742 32.7918C32.2814 32.2971 32.2331 30.4111 33.5444 29.8104C33.8733 29.6602 39.2192 29.1125 39.934 29.1125C39.8901 28.6134 39.3112 27.1293 39.0481 26.6876L38.6534 26.0163C38.5745 25.8794 38.5043 25.8087 38.421 25.6806C38.3377 25.5569 38.2894 25.4863 38.2017 25.367C38.114 25.2477 38.057 25.1727 37.9737 25.0622C37.6711 24.6559 37.351 24.2363 36.9913 23.8785C36.8686 23.7504 36.851 23.7195 36.7589 23.5782L36.0485 23.6444C35.838 23.6753 35.5354 23.693 35.3336 23.7018C34.4259 23.7416 33.426 24.1038 32.698 23.3264C32.0489 22.6285 32.163 21.4271 32.9304 20.8706C33.3426 20.5747 33.7593 20.557 34.3995 20.504C35.0661 20.4466 35.838 20.3185 36.5133 20.2964C38.2149 20.2478 40.0392 20.2523 41.7189 20.3848C44.2844 20.5835 47.091 21.2946 49.3627 22.5269C51.6782 23.7813 50.7047 24.011 51.972 23.4942C52.1168 23.4324 52.2922 23.3573 52.4544 23.2778C52.6343 23.1939 52.7483 23.1497 52.9412 23.0702C53.6034 22.792 55.0419 22.0146 55.6427 21.6127C55.5286 21.3962 55.4278 21.1091 55.3269 20.8618C55.0199 20.0977 54.7831 19.3115 54.577 18.5032C54.1779 16.9396 54.0551 15.7426 54.0551 14.0289C54.0551 12.8805 54.3007 11.5422 54.5902 10.6721C54.9366 9.62084 55.3576 8.60055 55.976 7.68184C56.0461 7.57583 56.0944 7.47866 56.1645 7.38149C56.3005 7.18273 56.4364 7.00164 56.5768 6.81171C56.8487 6.44511 57.1381 6.10501 57.4626 5.77816C57.7784 5.46015 58.0854 5.09797 58.4318 4.82854C58.5415 4.7402 58.5897 4.67836 58.6949 4.59886C59.1379 4.24993 59.5984 3.86566 60.0807 3.57414L60.6859 3.20313C60.9096 3.08829 61.0938 2.9867 61.3174 2.85419C61.5104 2.73494 61.7472 2.65102 61.949 2.54943C62.6068 2.21816 63.2953 1.95315 64.0101 1.71464C65.8257 1.10511 67.6895 0.738511 69.6016 0.583921L70.9567 0.5ZM58.3266 19.6427C58.3134 19.4837 58.1818 19.2187 58.1292 19.0641C58.0591 18.8609 58.0152 18.6799 57.9538 18.4634C57.8398 18.0571 57.7258 17.6993 57.6337 17.2267C57.2565 15.3363 57.1293 13.4459 57.7214 11.5731C57.9494 10.8487 58.2827 10.1155 58.7037 9.48392L59.3265 8.59613C59.4054 8.49454 59.4098 8.49012 59.4975 8.40179C59.6948 8.19861 59.9229 7.9071 60.2518 7.60233C60.3439 7.514 60.3833 7.50516 60.4754 7.41682C60.971 6.95305 61.4315 6.62179 62.0147 6.2596L64.2864 5.1068C64.4881 5.03171 64.6548 4.96988 64.8521 4.89921C66.1502 4.4531 67.1369 4.22342 68.5578 4.00258C69.0227 3.92749 69.4788 3.87449 69.9305 3.82591L71.0268 3.77732C71.1803 3.76849 71.2242 3.73757 71.3908 3.73757C71.4917 4.16601 71.6233 4.57677 71.7154 5.00963C72.1583 7.19598 72.246 7.97335 72.246 10.2966C72.246 11.1579 72.1451 11.9353 71.9916 12.6641C71.9171 13.0174 71.8206 13.3531 71.7329 13.7153C71.6408 14.0996 71.5092 14.3778 71.3864 14.7179C71.2023 15.2303 71.1365 15.2656 70.9918 15.6322C70.6979 16.361 70.1454 17.0235 69.6805 17.6331C69.3341 18.0924 68.4043 18.8477 67.9175 19.1745C67.7641 19.2805 67.6588 19.3203 67.5097 19.4219C67.3474 19.5279 67.2685 19.5676 67.0931 19.656C66.2335 20.0888 66.0625 20.1109 65.1898 20.4069C64.6635 20.5835 63.5803 20.8088 63.0015 20.8662L61.7472 20.9545C61.7735 20.8441 62.6901 19.8592 62.8348 19.7134L63.3567 19.095C64.1811 18.035 65.3345 16.3875 65.9397 15.2568C66.0099 15.1287 66.0713 15.0227 66.1414 14.8902L68.6368 9.81519C69.106 8.71097 68.1149 7.54933 67.3211 7.54933C66.8036 7.54933 66.5888 7.58025 66.1239 7.90268C65.8871 8.06611 65.681 8.36203 65.5582 8.64472C65.488 8.81256 65.4354 8.9539 65.3696 9.10849L64.4443 11.0872C64.1943 11.6084 63.0234 13.808 62.7296 14.2409C62.2603 14.9432 62.0016 15.4467 61.4315 16.2108L60.2825 17.6772C60.0281 18.0041 58.6467 19.4263 58.3266 19.6427Z" fill="white"/>
<path fill-rule="evenodd" clip-rule="evenodd" d="M32.2814 68.7584C32.2814 69.5048 32.3779 70.2999 32.562 70.852C32.6541 71.1391 32.7769 71.4394 32.926 71.6779C33.0576 71.8899 33.2681 72.1726 33.4523 72.336L34.154 72.8175C34.3864 72.9323 34.7153 73.0781 35.0004 73.1532C35.9695 73.4005 37.7281 73.48 38.8245 73.3387C39.7498 73.215 40.7584 73.1576 41.675 73.056C45.0737 72.6805 47.9637 72.526 51.2528 73.6302C53.1693 74.275 54.827 75.4588 56.2435 76.8854C56.8267 77.4729 56.989 77.6937 57.8793 77.6937C58.2608 77.6937 58.6818 77.4464 58.9318 77.1946C59.0414 77.0798 59.1817 76.8987 59.2475 76.7352C59.4405 76.2538 59.401 75.5869 59.1072 75.1893C58.6204 74.5268 57.6293 73.6832 56.9715 73.1134C56.6426 72.8307 56.2698 72.5922 55.919 72.3316C54.9717 71.6205 53.849 71.0905 52.7483 70.6488C51.5554 70.1674 50.2091 69.8405 48.9242 69.6594C48.7487 69.6373 48.5733 69.6241 48.3804 69.5931C48.1874 69.5667 48.0032 69.5843 47.8103 69.5534C46.4069 69.3414 42.8635 69.6152 41.6487 69.7477C41.061 69.814 40.4427 69.8891 39.8156 69.9509C39.035 70.026 36.6274 70.3617 35.9257 69.8405C35.1144 69.2398 35.7722 67.7116 36.1713 67.1815C36.3379 66.9607 36.5177 66.7222 36.7063 66.5323C37.158 66.0862 37.772 65.512 38.2982 65.1807C38.4473 65.0879 38.5263 65.0438 38.6666 64.9378C39.3551 64.4166 40.1752 64.0897 40.9383 63.701C41.5566 63.383 42.3942 63.1092 43.074 62.9016C43.2362 62.8486 43.3546 62.8 43.5301 62.747C45.2886 62.2435 46.6876 62.0712 48.5646 61.9122C49.2487 61.8548 51.1213 62.0536 51.8186 62.1949C53.0333 62.4378 54.3884 62.7293 55.5067 63.2373L56.3356 63.5906C57.1074 63.9837 57.91 64.3327 58.5809 64.8936C59.2651 65.4634 59.5238 65.6489 60.0895 66.3247C60.9008 67.3008 62.4094 67.1374 62.9313 65.9757C63.2164 65.353 63.0629 64.8141 62.6769 64.2929L61.7955 63.2991C61.0456 62.6719 60.3 62.0491 59.4668 61.5456C59.151 61.3513 58.8265 61.179 58.4888 61.0112C56.3707 59.9423 54.0727 59.2091 51.7045 58.8646C50.8538 58.7409 49.8583 58.6614 48.968 58.6305L47.5603 58.6879C47.0954 58.7586 46.67 58.7806 46.214 58.8469C45.8061 58.9087 45.3632 58.975 44.9422 59.0457C43.1091 59.3637 41.5259 59.9334 39.8243 60.6092C38.4122 61.1702 36.7589 62.1463 35.588 63.1092C34.9653 63.6215 34.4215 64.1648 33.9171 64.7876L33.4435 65.4192C33.005 66.0287 32.7068 66.7045 32.4787 67.4421C32.3954 67.7204 32.2814 68.3918 32.2814 68.7584Z" fill="white"/>
<path fill-rule="evenodd" clip-rule="evenodd" d="M5.09595 33.6663C5.09595 34.002 5.24945 34.3995 5.38101 34.6071L5.95989 35.252C6.78874 36.0735 7.65706 36.8465 8.62186 37.4957L11.8583 39.1918C15.0158 40.3358 17.8138 40.4418 21.173 40.1856L24.9971 39.7748C25.8041 39.6821 28.3739 39.1918 28.8081 40.3225C28.8607 40.455 28.9177 40.7731 28.8958 40.9497C28.8695 41.1397 28.8388 41.3737 28.7906 41.546C28.7379 41.7448 28.6721 41.864 28.5976 42.0451C28.0363 43.4011 26.0716 44.7659 24.8875 45.4019L23.9666 45.8657C23.3394 46.1837 22.6378 46.4487 21.9799 46.6961C19.8925 47.4779 17.6076 47.8489 15.3535 47.8489C13.3011 47.8489 10.1831 47.1864 8.27102 46.25C8.157 46.1926 8.02105 46.1396 7.90264 46.0866C6.93784 45.6669 5.73623 44.9161 4.98632 44.1475C4.88984 44.0504 4.8109 43.9841 4.72319 43.8781C4.28465 43.326 3.86364 42.8048 2.98217 42.8048C2.79798 42.8048 2.51731 42.8799 2.38136 42.9417C1.92966 43.1493 1.4341 43.6352 1.4341 44.2005C1.4341 44.9337 1.4955 45.0883 1.92966 45.6316L2.38136 46.1572C2.48222 46.2765 2.58748 46.3206 2.70588 46.4443L4.42498 47.8312C4.67934 48.0211 4.92054 48.1536 5.19682 48.3215C6.27126 48.9752 7.42902 49.4743 8.62186 49.8718C8.94638 49.9822 9.20512 50.0927 9.52965 50.1898C11.1479 50.6934 13.1871 51.0865 14.9062 51.0865C16.3271 51.0865 17.1384 51.0997 18.5374 50.8965C18.8882 50.8435 19.1426 50.7994 19.4802 50.7375C21.9142 50.2737 24.6244 49.3948 26.7645 48.1139L27.4574 47.7031C28.0231 47.363 28.4967 46.9258 29.0098 46.5194L29.3212 46.2588C29.5098 46.091 29.6896 45.8922 29.8694 45.7067L30.4 45.1325C30.6149 44.9028 30.7947 44.6157 30.9745 44.3596C31.014 44.2977 31.0491 44.2624 31.0929 44.1917C31.6674 43.3525 32.0446 42.3675 32.1235 41.334C32.1717 40.6891 32.1147 40.8084 32.1191 40.3049C32.1235 39.7616 31.9086 38.8605 31.7288 38.4895L31.4306 37.9683C30.9438 37.1998 30.1632 36.7846 29.2554 36.5505C28.5713 36.3783 27.4968 36.2546 26.7382 36.3606C26.5496 36.3827 26.3654 36.3562 26.1812 36.3738L22.9886 36.7228C22.2518 36.8244 21.6028 36.8111 20.866 36.9215C20.3749 36.9922 19.1601 37.0275 18.6075 37.0275C17.02 37.0275 14.7001 36.7625 13.2266 36.1795C11.718 35.5788 10.8628 35.1018 9.56034 34.1257C9.42878 34.0285 9.3937 33.9843 9.27529 33.8827L8.20085 32.8757C7.70091 32.3677 7.60882 32.0674 6.64402 32.0674C5.99936 32.0674 5.46872 32.4826 5.25822 33.0082C5.20121 33.1495 5.09595 33.4764 5.09595 33.6663Z" fill="white"/>
<path fill-rule="evenodd" clip-rule="evenodd" d="M3.75401 63.7143C3.75401 63.0297 3.88995 62.6498 4.35481 62.1861C4.95562 61.5854 5.09595 61.5324 5.78886 61.1304C6.10461 60.9449 6.10461 60.9626 6.46421 60.8257C8.28856 60.1366 10.4199 60.4414 12.1302 61.0951C13.2397 61.5191 13.8581 61.9299 14.779 62.6145L15.8491 63.626C15.9456 63.7496 15.9631 63.7761 16.0771 63.8865C16.5069 64.3238 17.2086 65.5959 17.4454 66.1966C17.612 66.6162 17.7962 67.3803 17.7962 67.9368C17.0639 67.9368 16.3622 67.822 15.678 67.7734C14.858 67.7204 12.3933 67.3494 11.6785 67.208C11.3408 67.1462 11.0646 67.0888 10.7181 67.0314C9.84978 66.8812 6.83698 66.1568 6.10899 65.936C5.57835 65.7681 4.97316 65.481 4.61794 65.1409C4.3285 64.8583 4.40305 65.0394 4.06976 64.5447C3.92504 64.3238 3.75401 64.0632 3.75401 63.7143ZM0.5 63.4272C0.5 64.7567 0.728043 65.3971 1.4034 66.413C1.64899 66.7884 1.86826 67.0402 2.17524 67.3538C2.27172 67.4465 2.28488 67.4598 2.39452 67.5437C3.03918 68.0517 3.43387 68.3697 4.27149 68.7274L4.85475 69.0013L6.92907 69.5357C7.9772 69.8184 10.0471 70.238 11.2093 70.4324C14.9808 71.064 17.3928 71.2848 21.4975 71.2981C21.8221 71.3025 21.9756 71.2539 22.2694 71.2583C24.4007 71.2671 27.5275 70.927 29.615 70.5781C30.1018 70.4986 30.4614 70.4014 30.7465 70.1232C31.242 69.6373 31.3078 69.4121 31.3078 68.7584C31.3078 68.3697 31.1061 67.9987 30.8561 67.7381C30.1851 67.0314 29.3826 67.261 28.6414 67.3891L26.6022 67.6674C25.9488 67.7602 25.1112 67.7999 24.4972 67.8838L22.8395 67.9766C22.5764 67.9766 22.4887 68.0163 22.2738 68.0207C22.0852 68.0252 21.8878 68.0163 21.6993 68.0163C21.4668 68.0207 21.3923 68.0605 21.1336 68.0605C21.1336 66.678 20.4845 64.6507 19.796 63.5023C19.4232 62.8751 18.8093 61.9564 18.2918 61.4484C18.169 61.3292 18.1383 61.2585 18.0287 61.1437C17.9278 61.0333 17.8313 60.9361 17.7261 60.8345C17.6076 60.7197 17.5375 60.6887 17.4191 60.5695C17.2875 60.437 17.2349 60.3972 17.0946 60.2824C16.3885 59.7038 16.1385 59.5138 15.3755 59.0589L14.608 58.6437C13.0512 57.7603 10.3541 57.036 8.47275 57.195C7.62636 57.2657 7.29745 57.195 6.36773 57.4512C5.12227 57.7957 4.18378 58.2065 3.12689 58.9441C2.88569 59.1119 2.70588 59.2842 2.46907 59.4697C2.39452 59.5271 2.38136 59.5404 2.32435 59.6066C2.28926 59.6464 2.29804 59.6419 2.26734 59.6773C1.75424 60.2515 1.30254 60.6799 0.969243 61.5235C0.850836 61.8283 0.723658 62.0447 0.640334 62.3804C0.565782 62.6631 0.5 63.1048 0.5 63.4272Z" fill="white"/>
<path fill-rule="evenodd" clip-rule="evenodd" d="M46.6086 41.864C49.0733 41.864 53.6034 42.6326 56.0242 43.2421C56.4364 43.3437 58.3748 43.8163 58.6642 43.9399C59.1203 44.1387 59.5852 44.4214 59.9623 44.7262C60.5018 45.1634 60.9008 45.8171 60.6947 46.5459C60.2649 48.0653 58.2389 49.1121 56.6601 49.2844C55.7128 49.386 55.1954 49.333 54.2306 49.1916C53.6824 49.1121 52.6211 48.8427 52.1299 48.5998C51.6914 48.3877 51.209 48.2022 50.7748 47.9151C50.2179 47.5397 50.1916 47.553 49.5776 47.0715C48.8496 46.4973 47.8322 45.3622 47.4068 44.5009C46.7402 43.1449 46.6656 41.9921 46.6086 41.864ZM33.176 40.7554C33.176 41.3428 33.29 41.6697 33.6145 41.9965C33.9171 42.3057 34.2022 42.4868 34.6758 42.531C35.0881 42.5663 35.5705 42.4205 36.009 42.3366C36.4826 42.2483 36.8949 42.2041 37.3904 42.1334L41.7627 41.7403C42.289 41.7315 42.824 41.7403 43.3502 41.7403C43.4643 43.0963 43.666 43.9885 44.1791 45.212L44.3984 45.7332C44.7097 46.3604 44.7755 46.4885 45.1921 47.1024C45.407 47.4204 45.8807 48.0476 46.1482 48.3082C46.3104 48.4672 46.4639 48.6925 46.6788 48.8824C47.876 49.9469 48.8759 50.6978 50.3494 51.378C50.5248 51.4575 50.6652 51.5149 50.8625 51.5988C52.1869 52.1553 53.7832 52.6059 55.6427 52.6059C57.182 52.6059 58.809 52.2437 60.0632 51.6076C60.7649 51.2499 61.6507 50.6757 62.2033 50.1147C63.1155 49.1916 63.9838 47.7915 63.9838 46.4134C63.9838 45.2253 63.7294 44.333 63.1067 43.3658C62.6989 42.7341 61.927 42.0716 61.3174 41.6432C61.085 41.4798 60.2079 40.9762 59.9273 40.8658L58.866 40.5831C57.9538 40.3579 57.046 40.0884 56.0724 39.872C55.5813 39.7616 55.1383 39.6998 54.6472 39.5849C54.1428 39.4657 53.7131 39.395 53.1693 39.3111C52.7044 39.2404 52.1913 39.13 51.6782 39.0505C48.7926 38.6044 45.8368 38.4763 42.7407 38.463C42.4293 38.4586 42.2977 38.5028 42.0083 38.5028C41.7627 38.5028 41.4777 38.4895 41.2365 38.5028C41.0567 38.5116 41.0654 38.5381 40.8725 38.5425C39.5437 38.5823 38.8069 38.7236 37.5702 38.8296C36.6098 38.9135 35.7371 39.0726 34.8249 39.2183C34.2855 39.3022 34.0136 39.3729 33.6935 39.6777C33.4479 39.9162 33.176 40.2916 33.176 40.7554Z" fill="white"/>
<path fill-rule="evenodd" clip-rule="evenodd" d="M13.1564 79.9065L16.0157 80.3482C16.3753 80.3968 16.6779 80.4057 17.0463 80.4587C17.3621 80.5028 17.7524 80.5382 18.0418 80.5602C18.8136 80.6265 19.9012 80.7281 20.6468 80.7281C20.8924 80.7281 20.9406 80.7678 21.173 80.7678C21.23 81.024 21.309 81.2758 21.366 81.5143C21.4361 81.7881 21.5019 82.0266 21.5853 82.2828C21.6598 82.5081 21.7212 82.751 21.8089 82.9984C21.8922 83.2501 21.9887 83.4621 22.094 83.6918C22.1466 83.8067 22.1861 83.9082 22.2299 84.0098C22.2518 84.0584 22.2782 84.1247 22.3045 84.1777L23.1026 85.5911C23.2342 85.8075 23.3789 85.9621 23.4929 86.1829C23.1026 86.1829 22.8877 86.1299 22.5544 86.099C21.9843 86.0504 20.4319 85.781 19.9232 85.6352C17.8839 85.0301 16.9718 84.7828 15.3272 83.4975L14.7878 82.9763C14.7045 82.8703 14.6212 82.8084 14.5291 82.7069C14.2484 82.3888 13.8976 81.8279 13.6958 81.4525C13.5906 81.2581 13.4722 80.9313 13.402 80.7237L13.1564 79.9065ZM26.2119 89.5H25.1682C24.4972 89.4956 23.9052 89.4823 23.6596 89.4558L22.5325 89.3631C20.5941 89.0804 20.3836 89.0892 18.454 88.5901C17.7962 88.4223 17.8138 88.4046 17.2086 88.2059C16.4192 87.9453 15.6868 87.5875 14.9588 87.1944C13.8581 86.5981 12.6477 85.5955 11.8759 84.6017L11.2137 83.6653C10.6216 82.5567 10.6699 82.7334 10.2182 81.3906C9.82786 80.229 9.77962 79.0718 9.77962 77.8571C9.77962 76.8633 10.6962 76.0153 11.7092 76.2803C11.8057 76.3068 11.8978 76.3201 11.9767 76.3377L16.121 77.0444C18.2216 77.3448 19.8925 77.4508 22.0677 77.4508L23.6552 77.4066C23.892 77.411 23.9534 77.3757 24.142 77.3669L26.1768 77.2432C27.1153 77.1681 28.1327 76.9958 29.0668 76.9163C29.7422 76.8589 30.4482 76.6955 31.0359 77.0268C31.2113 77.1239 31.3385 77.2255 31.4657 77.3713C31.9612 77.9675 32.0972 78.7493 31.6104 79.3942C31.4481 79.6106 31.2201 79.8182 30.9657 79.9375C30.6149 80.1053 28.4529 80.3041 27.7951 80.388L24.5498 80.6883C24.563 80.8606 24.6595 81.1565 24.7077 81.3067C25.0892 82.5655 25.6725 83.6432 26.4794 84.6856L27.6723 86.1123C27.7863 86.205 27.7687 86.1873 27.9661 86.1829L29.3212 86.0681C29.5712 86.0372 29.751 86.0372 29.9922 86.0062C30.9 85.8826 31.299 85.9002 31.9042 86.6423C32.4261 87.2871 32.2682 88.4488 31.4394 88.9788C31.0491 89.2217 30.3474 89.2747 29.7948 89.3322C29.1633 89.3984 28.5055 89.4072 27.8871 89.4603C27.6109 89.4823 26.9443 89.4956 26.2119 89.5Z" fill="white"/>
<path fill-rule="evenodd" clip-rule="evenodd" d="M10.6304 28.2512C10.6304 28.9358 10.6699 29.4305 10.8102 30.0798C10.9154 30.5436 11.0821 31.0073 11.2707 31.3828C11.6917 32.2308 12.2311 33.0126 12.9196 33.653C13.0205 33.7458 13.0643 33.7591 13.1652 33.8606C14.1344 34.8103 16.0552 35.7555 17.4278 35.7555C18.1251 35.7555 18.9759 35.8085 19.5986 35.5611C21.4098 34.8412 22.1729 34.267 22.9886 32.4207C23.6157 31.0118 23.4885 29.616 23.3 28.1585L23.2079 26.5331C23.2079 25.3714 23.5017 24.7 24.4533 24.1347C24.6463 24.0198 24.7165 23.9801 24.9533 23.9006C25.8084 23.6179 26.5408 23.481 27.374 23.8918C27.5451 23.9757 27.681 24.0684 27.7951 24.2054C27.9135 24.3511 28.0143 24.4969 28.1064 24.6735C28.4792 25.4156 28.5713 26.2195 28.4967 27.2663C28.4222 28.291 27.9968 29.8192 27.4004 30.7114C27.203 31.0118 26.953 31.3298 26.953 31.82C26.953 33.3748 29.0537 34.267 30.0667 32.5798C30.3956 32.0321 30.6412 31.7096 30.9043 31.0471C31.6148 29.2583 31.7551 28.4588 31.7551 26.3652C31.7551 25.102 31.3692 23.5737 30.65 22.602C30.5447 22.4607 30.4789 22.3194 30.3605 22.1957C29.6019 21.3874 28.887 20.8662 27.7994 20.5968C26.2207 20.1993 25.1112 20.3406 23.5719 20.9545C22.6553 21.3211 21.651 22.0455 21.0502 22.8405C20.1074 24.0861 19.9451 25.4863 19.9889 27.0233L20.0854 28.2821C20.1205 28.5383 20.0942 28.821 20.1161 29.1125C20.1381 29.3819 20.1951 29.6249 20.1951 29.934C20.1951 31.3298 19.4978 32.5179 18.0374 32.5179C17.1033 32.5179 16.3885 32.2264 15.6605 31.6743C15.0816 31.237 14.6036 30.7247 14.2659 30.0445C13.9414 29.3819 13.8888 28.8828 13.8888 28.132C13.8888 26.8466 14.5378 25.6541 15.3842 24.7972C15.6912 24.488 16.1911 24.0994 16.5595 23.8918C17.02 23.6356 17.7524 23.4501 18.0067 23.2601C19.3838 22.231 18.647 20.2567 17.0639 20.2567C16.7481 20.2567 16.5727 20.3406 16.3359 20.4289C16.1297 20.504 15.9061 20.5879 15.6912 20.6807C15.1693 20.9192 14.4238 21.33 13.9984 21.6833C13.0468 22.4784 12.5644 22.867 11.8452 24.0243C11.1172 25.1903 10.6304 26.723 10.6304 28.2512Z" fill="white"/>
<path fill-rule="evenodd" clip-rule="evenodd" d="M41.0303 79.456V79.9507C41.0303 81.9648 41.868 84.6017 40.1094 85.622C39.0876 86.2138 37.2852 86.5274 36.487 85.304C35.952 84.478 35.9871 83.5593 35.9871 82.5743C35.9871 81.3553 36.4651 80.0037 37.0747 79.0806C37.3246 78.7052 37.5308 78.449 37.5308 77.9013C37.5308 77.0842 36.7984 76.3024 35.8643 76.3024C34.9697 76.3024 34.5355 76.9737 34.1233 77.6186C34.0356 77.7555 33.9873 77.8748 33.904 78.0161C33.5356 78.6212 33.0708 80.0523 32.9304 80.7634C32.6366 82.2563 32.641 84.0893 33.0708 85.5911C33.3076 86.4258 33.5839 86.9117 34.0487 87.5168C34.1934 87.7023 34.5881 88.0954 34.7635 88.2324C35.2547 88.6122 34.9697 88.4002 35.3994 88.6564C36.1888 89.1334 37.2325 89.4205 38.2631 89.4205C39.4033 89.4205 40.8286 88.9788 41.7496 88.4179C41.9031 88.3251 42.0346 88.2324 42.1881 88.1264C43.4336 87.2562 44.4905 85.5822 44.4905 83.5991V82.9409C44.4905 81.5187 43.8765 78.9437 44.8281 77.9896C45.0343 77.782 45.1571 77.6274 45.4246 77.4861C46.5297 76.9163 47.8103 77.4331 48.7312 78.0559C49.6916 78.7007 50.595 79.9021 50.595 81.2625C50.595 82.7378 49.8977 84.4294 48.74 85.2951C48.0251 85.834 47.8322 85.9709 46.9156 86.2889C46.7402 86.3464 46.5867 86.417 46.4552 86.5186C45.0036 87.667 45.9377 89.5 47.2972 89.5C48.183 89.5 49.3539 88.8596 50.0118 88.4179C50.1872 88.303 50.3451 88.1838 50.5073 88.0601C50.6871 87.9276 50.8362 87.7863 51.0029 87.6582C51.2134 87.4947 51.6958 86.9735 51.88 86.7395C52.1036 86.4524 52.6036 85.7633 52.779 85.4276C53.7043 83.6874 54.1604 81.7042 53.6473 79.7431C53.2789 78.3341 52.7176 77.3094 51.6826 76.2715C51.0862 75.6664 50.3275 75.1275 49.5776 74.7432C48.1129 73.9835 45.6044 73.6258 44.144 74.5135C43.8283 74.7079 43.7844 74.6726 43.2845 75.0038C42.9424 75.2335 42.6705 75.5029 42.4205 75.8165C42.0829 76.2405 42.0609 76.2317 41.7408 76.7706C41.3812 77.3757 41.0303 78.6124 41.0303 79.456Z" fill="white"/>
<path fill-rule="evenodd" clip-rule="evenodd" d="M32.6497 53.0166C32.6497 54.4919 32.9304 56.2409 33.2769 57.6323L33.8996 59.6287C34.5837 61.2762 37.044 60.8698 37.044 59.0412C37.044 58.604 35.9432 55.6932 35.9432 53.3832C35.9432 52.2304 35.9564 51.3382 36.4826 50.3577C36.5791 50.181 36.6537 50.1147 36.7765 49.9557C37.386 49.1739 38.8464 49.1519 39.8507 49.7349C39.9296 49.7835 40.0655 49.8718 40.1445 49.9336C40.8944 50.5343 42.4907 52.5705 43.2932 53.1977C43.4073 53.2861 43.4467 53.3435 43.5432 53.4362C43.6309 53.5113 43.723 53.5776 43.8151 53.6527C44.8852 54.4963 45.6395 54.9645 46.8104 55.5563C46.9156 55.6093 47.0296 55.6712 47.1349 55.7197C48.0602 56.1394 49.4153 56.6385 50.3933 56.9079C50.9064 57.0536 51.4107 57.1641 51.9545 57.301C52.4983 57.4423 53.0816 57.5263 53.6166 57.6367C54.1823 57.7515 57.9757 58.2683 58.8967 58.2639C59.5501 58.2595 60.0764 58.3434 60.8526 58.3434C61.9446 58.3434 62.9752 56.9079 61.9183 55.6314C61.8525 55.5563 61.7034 55.4415 61.6244 55.3929C61.1069 55.0749 60.5368 55.1323 59.7518 55.1058C58.9537 55.0837 56.5505 54.8143 55.8312 54.7083C53.9806 54.4389 52.336 54.1385 50.5599 53.5422C49.5864 53.2154 48.4637 52.7737 47.5822 52.2393C46.7884 51.7578 46.7271 51.7269 45.9684 51.1571C45.5824 50.87 44.8852 50.2075 44.5606 49.8674L43.5432 48.719C42.824 48.0035 42.8284 47.8754 41.8943 47.1024C40.3988 45.8525 37.6755 45.7288 35.9301 46.5636C34.9477 47.0362 34.0005 48.0256 33.5356 48.9884C33.4523 49.1607 33.3602 49.333 33.2769 49.5494C32.8909 50.5608 32.6497 51.7887 32.6497 53.0166Z" fill="white"/>
<path fill-rule="evenodd" clip-rule="evenodd" d="M27.4793 50.7994C27.4793 51.3647 27.6065 51.6651 27.7994 52.2393C28.1152 53.1845 28.5362 55.0926 28.5362 56.0908C28.5362 57.4158 28.5888 57.725 28.159 59.028C27.9398 59.6861 27.2688 60.278 26.6461 60.4149C25.883 60.5783 24.9752 60.3751 24.3963 59.8937C23.8701 59.4564 23.6727 59.1782 23.2561 58.7011C23.164 58.5951 23.0719 58.5245 22.9711 58.4185L22.1378 57.4953C21.4054 56.7533 21.3441 56.7268 20.6336 56.0996L20.2915 55.8302C20.0635 55.6447 19.8486 55.5033 19.603 55.3355C18.5681 54.642 17.7085 54.1915 16.5551 53.7277C14.6475 52.9636 14.0335 52.8488 12.0557 52.3585C11.3145 52.1774 8.83674 51.7666 8.0649 51.7048C6.61771 51.5944 5.19243 51.3735 3.71454 51.3735C2.94708 51.3735 2.127 52.0714 2.127 52.9327C2.127 53.4848 2.20594 53.7763 2.58309 54.1518C2.71904 54.2843 2.81552 54.3859 2.99532 54.4786C3.49526 54.7304 4.36797 54.6332 4.96878 54.6995C5.37224 54.748 5.90288 54.7922 6.3195 54.8187C6.74927 54.8452 7.2229 54.907 7.66144 54.9424C8.52099 55.0175 10.5427 55.3752 11.4373 55.5652C12.3056 55.7507 12.8933 55.945 13.7485 56.1879C14.8053 56.4883 16.3534 57.1861 17.2963 57.778C17.4673 57.884 17.5989 57.9459 17.7524 58.0563C17.9015 58.1623 18.0199 58.2506 18.1865 58.361C18.5111 58.5775 18.897 58.9264 19.1864 59.1958C19.4802 59.4697 19.7828 59.6729 20.1205 60.1013L22.2431 62.3892C22.7781 62.8442 23.3482 63.2417 24.0981 63.4758C25.1989 63.8159 26.7338 63.8291 27.9178 63.4581C28.4266 63.3035 28.9309 62.9988 29.3475 62.6852C29.5054 62.5659 29.6062 62.4952 29.751 62.3539C30.5228 61.5633 30.7815 61.126 31.2026 60.1234C31.2508 59.9997 31.2683 59.9865 31.3078 59.8628C31.8297 58.1049 31.7946 57.8001 31.7946 55.9671C31.7946 54.5934 31.4306 53.0917 31.1499 51.9831C31.0622 51.6297 30.7465 50.5299 30.6017 50.2384C30.4746 49.9822 30.3035 49.7658 30.093 49.6068C29.2861 48.9973 28.0845 49.2667 27.6547 50.1987C27.5933 50.3312 27.4793 50.6359 27.4793 50.7994Z" fill="white"/>
<path fill-rule="evenodd" clip-rule="evenodd" d="M10.4681 73.7185C10.4681 74.1249 10.7225 74.646 10.9286 74.8536L11.3759 75.1805C11.8232 75.419 14.187 75.7061 14.7878 75.7635C16.7262 75.949 18.5944 76.1787 20.7257 76.1787C21.309 76.1787 21.6861 76.2273 22.2343 76.1787C22.6948 76.1434 23.3394 76.1743 23.8174 76.1787L25.3217 76.0948C26.7864 76.0197 28.2161 75.8828 29.672 75.6796C30.343 75.5824 30.7903 75.4102 31.1324 74.7697C31.6016 73.8819 31.1017 72.7115 30.0974 72.4774C29.5799 72.3581 28.4178 72.5922 27.7205 72.6496C23.6815 72.9853 20.7389 73.0957 16.6911 72.6585C15.4851 72.5304 14.5203 72.4244 13.3362 72.2256C12.4197 72.071 11.6303 71.8723 10.9461 72.5613C10.6655 72.844 10.4681 73.2768 10.4681 73.7185Z" fill="white"/>
<path fill-rule="evenodd" clip-rule="evenodd" d="M33.1365 35.6716C33.1365 36.7139 33.8382 37.3544 34.8863 37.3544C35.2284 37.3544 35.4915 37.2705 35.8117 37.2175C36.7238 37.0673 38.7938 36.8244 39.6884 36.7802C40.776 36.7272 41.846 36.6565 42.9468 36.6565L46.6832 36.8288C47.0603 36.8685 47.4594 36.9127 47.8673 36.948C48.604 37.0099 49.4548 37.1335 50.1433 37.2749L52.3448 37.721C53.0377 37.721 53.5947 37.3058 53.8227 36.7095C54.0902 36.0293 53.9981 35.4331 53.4938 34.9251C53.0158 34.4393 51.7835 34.2891 51.073 34.1698C50.6082 34.0859 50.1652 33.9976 49.7311 33.9225L45.464 33.4631C44.6045 33.388 43.1573 33.419 42.2934 33.419C40.4208 33.419 38.6754 33.6045 36.9694 33.7944C36.123 33.8916 35.2942 34.0241 34.4785 34.1566C33.7154 34.2803 33.1365 34.9472 33.1365 35.6716Z" fill="white"/>
<path fill-rule="evenodd" clip-rule="evenodd" d="M3.59174 72.1594C3.59174 72.8263 4.03029 73.4226 4.62671 73.6611C4.79336 73.7273 4.92492 73.7494 5.09157 73.8068C5.24944 73.8554 5.42486 73.9128 5.59151 73.9614C6.06075 74.0939 7.12203 74.2662 7.70968 74.4075C9.48579 74.8271 10.4901 72.7645 9.30599 71.6514C8.92884 71.2981 8.68325 71.3025 8.1263 71.1611L6.05637 70.7018C5.47749 70.556 5.76693 70.5207 5.09595 70.5207C4.65741 70.5207 4.27587 70.7901 4.04783 71.0198C3.81979 71.2539 3.59174 71.7177 3.59174 72.1594Z" fill="white"/>
<path fill-rule="evenodd" clip-rule="evenodd" d="M54.6647 36.9834C54.6647 38.198 55.7567 38.5293 56.7303 38.7192C56.8838 38.7457 57.0636 38.7678 57.2521 38.8075C57.4407 38.8429 57.5854 38.8915 57.774 38.9356C58.8265 39.2051 59.7211 39.6114 60.5325 38.5911C61.1245 37.8447 60.8614 36.8685 60.3483 36.4268C60.0281 36.1574 59.5764 35.9984 59.1335 35.888C58.3134 35.676 57.7784 35.6009 56.9802 35.4286C56.3794 35.305 55.6471 35.1636 55.1164 35.7997C54.941 36.0161 54.9059 35.9807 54.8007 36.3032C54.7437 36.4843 54.6647 36.767 54.6647 36.9834Z" fill="white"/>
</svg>
