<svg width="69" height="60" viewBox="0 0 69 60" fill="none" xmlns="http://www.w3.org/2000/svg">
<g id="svg" filter="url(#filter0_d_1_552)">
<path fill-rule="evenodd" clip-rule="evenodd" d="M19.8176 27.9252L19.9629 26.6596C20.1113 25.4244 20.5805 23.9124 21.2162 22.8932C21.2677 22.811 21.304 22.7745 21.3585 22.6954L21.8338 22.1022C22.194 21.7249 22.6058 21.4146 23.078 21.1773C23.2566 21.0861 23.3565 21.0404 23.5745 20.9705C23.7349 20.9157 23.9741 20.8244 24.1466 20.8092C24.0467 21.0161 23.7561 23.1913 23.7259 23.4378C23.6229 24.3504 23.5563 25.3362 23.5563 26.3432C23.4534 26.3949 23.1719 26.4435 23.0477 26.4801C22.4029 26.6717 22.188 26.7021 21.5311 26.9638C21.3706 27.0307 21.2314 27.0885 21.083 27.1615L20.2293 27.6605C20.087 27.7548 19.9599 27.8491 19.8176 27.9252ZM4 7.13712L4 5.88673C4.02724 5.63726 4.10898 5.41212 4.31484 5.20525C4.59335 4.9284 4.94149 4.85843 5.32898 4.72761C5.71042 4.60287 6.08278 4.52682 6.48843 4.42339C7.46625 4.17696 8.59543 4.0218 9.72461 3.98529L10.7842 3.98529C11.4865 4.00963 12.1676 4.08265 12.7913 4.21346C13.5511 4.36862 14.7439 4.7124 15.4341 5.11398C15.5582 5.187 15.6884 5.2448 15.8186 5.3239C16.3604 5.65551 16.8963 6.01755 17.3534 6.46172C17.4079 6.51344 17.4412 6.54995 17.4927 6.60166C17.75 6.86026 17.9982 7.11277 18.2162 7.39875L18.4765 7.73341C18.5946 7.9129 18.7217 8.06197 18.8247 8.25668C18.9003 8.39662 18.9669 8.4879 19.0487 8.6248C19.3514 9.14199 19.5664 9.72002 19.751 10.292C19.9538 10.9156 20.081 11.5819 20.1567 12.2573C20.2838 13.4012 20.2747 14.7246 20.1082 15.8503C20.078 16.045 20.0416 16.0602 20.1385 16.1971L20.4715 16.7112C20.862 17.341 21.2041 17.9951 21.4887 18.6796C21.5674 18.8743 21.6824 19.0812 21.7278 19.285C21.8853 19.2485 21.9579 19.1603 22.1063 19.0994L23.3263 18.6613C23.9045 18.491 24.5432 18.4119 25.297 18.4119C25.7753 18.4119 26.1235 18.5031 26.3868 18.8135C26.4716 18.9169 26.5624 19.0934 26.6018 19.2455C26.6502 19.4402 26.6351 19.5892 26.6169 19.8205L26.2082 22.0353C26.1295 22.4733 25.9388 23.9337 25.9176 24.3687L25.8026 27.2771C25.8056 27.4353 25.8329 27.4718 25.8329 27.6422C25.8329 28.1716 25.8601 28.9747 25.9237 29.4706C26.0175 30.2008 26.0478 31.1774 26.1537 31.9227C26.1689 32.0353 26.181 32.1874 26.1901 32.2787C26.2082 32.4156 26.2536 32.4673 26.2536 32.5829C26.2536 32.7776 26.1992 32.9784 26.1326 33.1397C25.7935 33.9672 24.5008 34.0006 24.0891 33.091C23.9862 32.8628 23.6108 29.1542 23.6108 28.6583C23.2687 28.6888 22.2516 29.0904 21.9488 29.2729L21.4887 29.5467C21.3948 29.6015 21.3464 29.6501 21.2586 29.7079C21.1738 29.7657 21.1254 29.7992 21.0437 29.8601C20.9619 29.9209 20.9105 29.9604 20.8348 30.0183C20.5563 30.2282 20.2687 30.4503 20.0235 30.6997C19.9357 30.7849 19.9145 30.7971 19.8176 30.861L19.863 31.3538C19.8842 31.4999 19.8963 31.7098 19.9024 31.8497C19.9296 32.4795 20.1779 33.1731 19.6451 33.6781C19.1667 34.1284 18.3433 34.0493 17.9619 33.5169C17.7591 33.2309 17.7469 32.9419 17.7106 32.4977C17.6713 32.0353 17.5835 31.4999 17.5683 31.0313C17.535 29.8509 17.5381 28.5853 17.6289 27.4201C17.7651 25.6404 18.2525 23.6933 19.0971 22.1174C19.9569 20.5111 20.1143 21.1865 19.7601 20.3072C19.7177 20.2068 19.6663 20.0851 19.6118 19.9726C19.5542 19.8478 19.524 19.7687 19.4695 19.6349C19.2788 19.1755 18.746 18.1776 18.4705 17.7608C18.3221 17.8399 18.1254 17.9099 17.9558 17.9799C17.4321 18.1928 16.8932 18.3571 16.3393 18.5001C15.2676 18.777 14.4472 18.8621 13.2726 18.8621C12.4855 18.8621 11.5682 18.6918 10.9719 18.491C10.2514 18.2506 9.55206 17.9586 8.92238 17.5296C8.84972 17.4809 8.78312 17.4475 8.71652 17.3988C8.5803 17.3045 8.45618 17.2102 8.326 17.1128C8.07474 16.9242 7.84164 16.7234 7.61762 16.4983C7.39965 16.2792 7.15141 16.0663 6.96675 15.8259C6.9062 15.7499 6.86382 15.7164 6.80933 15.6434C6.57017 15.3361 6.3068 15.0167 6.107 14.682L5.8527 14.2622C5.77399 14.107 5.70437 13.9792 5.61355 13.8241C5.53181 13.6902 5.47429 13.5259 5.40466 13.386C5.17762 12.9297 4.99598 12.452 4.8325 11.9561C4.41474 10.6966 4.16347 9.40363 4.05752 8.07718L4 7.13712ZM17.1203 15.8989C17.0113 15.9081 16.8297 15.9993 16.7237 16.0358C16.5845 16.0845 16.4603 16.1149 16.312 16.1575C16.0335 16.2366 15.7883 16.3157 15.4644 16.3796C14.1687 16.6413 12.873 16.7295 11.5894 16.3188C11.093 16.1606 10.5904 15.9294 10.1575 15.6373L9.54903 15.2053C9.4794 15.1505 9.47638 15.1475 9.41583 15.0866C9.27657 14.9497 9.07677 14.7915 8.86789 14.5634C8.80734 14.4995 8.80129 14.4721 8.74074 14.4082C8.42288 14.0644 8.19583 13.745 7.94759 13.3404L7.15747 11.7644C7.106 11.6245 7.06362 11.5089 7.01518 11.372C6.70943 10.4715 6.55201 9.78696 6.40064 8.80125C6.34918 8.47877 6.31285 8.16237 6.27955 7.84901L6.24625 7.08844C6.2402 6.98196 6.21901 6.95153 6.21901 6.83593C6.51265 6.76595 6.79419 6.67468 7.09087 6.61079C8.58938 6.30352 9.12218 6.24268 10.7145 6.24268C11.3049 6.24268 11.8377 6.31265 12.3372 6.41913C12.5794 6.47085 12.8094 6.53778 13.0577 6.59862C13.321 6.66251 13.5118 6.75378 13.7449 6.83897C14.096 6.96674 14.1202 7.01238 14.3715 7.11277C14.871 7.31661 15.3251 7.69994 15.7429 8.02242C16.0577 8.26276 16.5754 8.90773 16.7994 9.24543C16.8721 9.35191 16.8993 9.42492 16.9689 9.52836C17.0416 9.64093 17.0688 9.69569 17.1294 9.81738C17.4261 10.4137 17.4412 10.5323 17.644 11.1377C17.7651 11.5028 17.9195 12.2543 17.9589 12.6558L18.0194 13.5259C17.9437 13.5077 17.2686 12.8718 17.1687 12.7714L16.7449 12.4094C16.0184 11.8375 14.8892 11.0373 14.1142 10.6175C14.0264 10.5688 13.9537 10.5262 13.8629 10.4776L10.3846 8.74649C9.62774 8.42096 8.83156 9.10852 8.83156 9.65918C8.83156 10.0182 8.85275 10.1672 9.07375 10.4897C9.18576 10.654 9.38858 10.797 9.58233 10.8822C9.69737 10.9309 9.79424 10.9674 9.9002 11.013L11.2564 11.6549C11.6136 11.8283 13.1212 12.6406 13.4179 12.8445C13.8993 13.17 14.2444 13.3495 14.7681 13.745L15.7731 14.5421C15.9972 14.7185 16.972 15.6768 17.1203 15.8989Z" fill="white"/>
<path fill-rule="evenodd" clip-rule="evenodd" d="M50.7838 33.9672C51.2954 33.9672 51.8403 33.9002 52.2188 33.7724C52.4155 33.7086 52.6214 33.6234 52.7849 33.5199C52.9302 33.4287 53.1239 33.2826 53.2359 33.1549L53.5659 32.6681C53.6446 32.5068 53.7445 32.2787 53.796 32.0809C53.9655 31.4086 54.02 30.1886 53.9231 29.428C53.8384 28.7861 53.799 28.0864 53.7294 27.4505C53.4721 25.0928 53.3661 23.0879 54.1229 20.8062C54.5649 19.4767 55.3762 18.3267 56.354 17.344C56.7567 16.9394 56.908 16.8268 56.908 16.2092C56.908 15.9446 56.7385 15.6525 56.566 15.4791C56.4872 15.403 56.3631 15.3057 56.2511 15.26C55.9211 15.1262 55.464 15.1536 55.1916 15.3574C54.7375 15.6951 54.1592 16.3827 53.7687 16.839C53.575 17.0672 53.4115 17.3258 53.2329 17.5692C52.7455 18.2263 52.3822 19.0051 52.0795 19.7687C51.7495 20.5962 51.5255 21.5302 51.4014 22.4216C51.3863 22.5433 51.3772 22.665 51.356 22.7989C51.3378 22.9327 51.3499 23.0605 51.3287 23.1944C51.1834 24.1679 51.3711 26.6261 51.4619 27.4688C51.5073 27.8765 51.5588 28.3054 51.6012 28.7405C51.6527 29.282 51.8827 30.9522 51.5255 31.439C51.1138 32.0018 50.0663 31.5455 49.7031 31.2686C49.5517 31.153 49.3882 31.0283 49.2581 30.8975C48.9523 30.5841 48.5588 30.1582 48.3317 29.7931C48.2681 29.6897 48.2379 29.6349 48.1652 29.5376C47.808 29.0599 47.584 28.491 47.3176 27.9617C47.0996 27.5327 46.9119 26.9516 46.7696 26.4801C46.7333 26.3675 46.7 26.2853 46.6637 26.1637C46.3186 24.9437 46.2005 23.9732 46.0915 22.6711C46.0522 22.1965 46.1884 20.8974 46.2853 20.4137C46.4518 19.571 46.6516 18.6309 46.9997 17.8551L47.2419 17.2801C47.5113 16.7447 47.7505 16.188 48.1349 15.7225C48.5255 15.2479 48.6526 15.0684 49.1158 14.6759C49.7848 14.1131 49.6728 13.0666 48.8766 12.7045C48.4498 12.5068 48.0804 12.6132 47.7232 12.881L47.0421 13.4925C46.6122 14.0127 46.1854 14.5299 45.8402 15.1079C45.707 15.327 45.589 15.5521 45.4739 15.7864C44.7413 17.2558 44.2388 18.85 44.0027 20.4928C43.9179 21.083 43.8634 21.7736 43.8422 22.3912L43.8816 23.3678C43.93 23.6903 43.9452 23.9854 43.9906 24.3018C44.0329 24.5847 44.0784 24.892 44.1268 25.184C44.3448 26.4557 44.7353 27.554 45.1985 28.7344C45.5829 29.714 46.252 30.861 46.9119 31.6733C47.2631 32.1053 47.6354 32.4825 48.0623 32.8324L48.4952 33.1609C48.9129 33.4652 49.3761 33.6721 49.8817 33.8303C50.0724 33.8881 50.5325 33.9672 50.7838 33.9672Z" fill="white"/>
<path fill-rule="evenodd" clip-rule="evenodd" d="M26.732 52.8264C26.962 52.8264 27.2345 52.7199 27.3768 52.6286L27.8188 52.227C28.3818 51.652 28.9116 51.0497 29.3566 50.3804L30.5191 48.1351C31.3032 45.9447 31.3758 44.0037 31.2002 41.6733L30.9187 39.0204C30.8551 38.4606 30.5191 36.6778 31.2941 36.3767C31.3849 36.3401 31.6029 36.3006 31.724 36.3158C31.8541 36.3341 32.0146 36.3554 32.1327 36.3888C32.2689 36.4253 32.3506 36.471 32.4747 36.5227C33.4041 36.9121 34.3396 38.275 34.7755 39.0965L35.0933 39.7354C35.3113 40.1704 35.493 40.6572 35.6625 41.1135C36.1983 42.5617 36.4526 44.1467 36.4526 45.7104C36.4526 47.1342 35.9985 49.2973 35.3567 50.6237C35.3174 50.7028 35.281 50.7972 35.2447 50.8793C34.9571 51.5486 34.4425 52.3822 33.9157 52.9024C33.8491 52.9694 33.8037 53.0241 33.7311 53.085C33.3527 53.3892 32.9954 53.6813 32.9954 54.2928C32.9954 54.4205 33.0469 54.6152 33.0893 54.7096C33.2316 55.0229 33.5646 55.3667 33.9521 55.3667C34.4546 55.3667 34.5605 55.3241 34.9329 55.0229L35.2931 54.7096C35.3749 54.6396 35.4052 54.5666 35.4899 54.4844L36.4405 53.2918C36.5707 53.1154 36.6615 52.9481 36.7765 52.7564C37.2246 52.011 37.5666 51.2079 37.8391 50.3804C37.9148 50.1552 37.9905 49.9757 38.0571 49.7506C38.4022 48.628 38.6716 47.2133 38.6716 46.0207C38.6716 45.035 38.6807 44.4722 38.5414 43.5017C38.5051 43.2583 38.4748 43.0819 38.4325 42.8476C38.1146 41.1592 37.5122 39.279 36.6342 37.7944L36.3527 37.3137C36.1196 36.9212 35.8199 36.5927 35.5414 36.2367L35.3628 36.0207C35.2477 35.8899 35.1115 35.7652 34.9844 35.6404L34.5908 35.2723C34.4334 35.1232 34.2366 34.9985 34.061 34.8738C34.0187 34.8464 33.9944 34.822 33.946 34.7916C33.3708 34.3931 32.6957 34.1314 31.9873 34.0767C31.5454 34.0432 31.6271 34.0828 31.282 34.0797C30.9096 34.0767 30.2921 34.2257 30.0378 34.3505L29.6805 34.5574C29.1538 34.8951 28.8692 35.4366 28.7088 36.0663C28.5907 36.5409 28.506 37.2863 28.5786 37.8126C28.5937 37.9434 28.5756 38.0712 28.5877 38.199L28.8268 40.4138C28.8965 40.9249 28.8874 41.3752 28.9631 41.8863C29.0115 42.227 29.0357 43.0697 29.0357 43.453C29.0357 44.5544 28.8541 46.1637 28.4545 47.1859C28.0428 48.2325 27.7158 48.8257 27.0468 49.7293C26.9802 49.8206 26.9499 49.8449 26.8803 49.9271L26.1901 50.6724C25.8419 51.0192 25.6361 51.0831 25.6361 51.7524C25.6361 52.1997 25.9206 52.5678 26.2809 52.7138C26.3778 52.7534 26.6018 52.8264 26.732 52.8264Z" fill="white"/>
<path fill-rule="evenodd" clip-rule="evenodd" d="M47.3266 53.7573C46.8574 53.7573 46.5971 53.663 46.2792 53.3405C45.8675 52.9237 45.8312 52.8264 45.5557 52.3457C45.4285 52.1266 45.4406 52.1266 45.3468 51.8772C44.8745 50.6116 45.0834 49.133 45.5315 47.9465C45.8221 47.1768 46.1036 46.7479 46.5729 46.109L47.2661 45.3667C47.3509 45.2997 47.369 45.2876 47.4447 45.2085C47.7444 44.9103 48.6163 44.4235 49.028 44.2593C49.3156 44.1436 49.8393 44.0159 50.2207 44.0159C50.2207 44.5239 50.142 45.0107 50.1087 45.4853C50.0724 46.0542 49.8181 47.764 49.7212 48.2599C49.6789 48.4941 49.6395 48.6858 49.6001 48.9261C49.4972 49.5285 49.0007 51.6186 48.8494 52.1236C48.7343 52.4917 48.5376 52.9116 48.3045 53.158C48.1107 53.3588 48.2348 53.3071 47.8958 53.5383C47.7444 53.6387 47.5658 53.7573 47.3266 53.7573ZM47.1299 56.0147C48.0411 56.0147 48.48 55.8565 49.1763 55.388C49.4336 55.2176 49.6062 55.0655 49.8211 54.8525C49.8847 54.7856 49.8938 54.7765 49.9513 54.7004C50.2995 54.2532 50.5174 53.9794 50.7626 53.3983L50.9503 52.9937L51.3166 51.5547C51.5104 50.8276 51.798 49.3916 51.9312 48.5854C52.3641 45.969 52.5154 44.2958 52.5245 41.4482C52.5275 41.223 52.4942 41.1166 52.4973 40.9127C52.5033 39.4342 52.2702 37.265 52.0311 35.8169C51.9766 35.4792 51.91 35.2297 51.7193 35.032C51.3863 34.6882 51.2319 34.6425 50.7838 34.6425C50.5174 34.6425 50.2631 34.7825 50.0845 34.9559C49.6001 35.4214 49.7576 35.9781 49.8454 36.4923L50.0361 37.9069C50.0997 38.3602 50.1269 38.9413 50.1844 39.3672L50.248 40.5172C50.248 40.6998 50.2752 40.7606 50.2783 40.9097C50.2813 41.0405 50.2752 41.1774 50.2752 41.3082C50.2783 41.4695 50.3055 41.5212 50.3055 41.7007C49.358 41.7007 47.9684 42.1509 47.1813 42.6286C46.7515 42.8872 46.1218 43.3131 45.7736 43.6721C45.6919 43.7573 45.6435 43.7786 45.5648 43.8546C45.4891 43.9246 45.4225 43.9915 45.3529 44.0645C45.2741 44.1467 45.253 44.1954 45.1712 44.2775C45.0804 44.3688 45.0531 44.4053 44.9744 44.5026C44.5779 44.9924 44.4477 45.1659 44.1359 45.6952L43.8513 46.2276C43.2459 47.3076 42.7494 49.1787 42.8584 50.4838C42.9068 51.071 42.8584 51.2991 43.0339 51.9441C43.2701 52.8081 43.5516 53.4592 44.0572 54.1924C44.1722 54.3597 44.2903 54.4844 44.4174 54.6487C44.4568 54.7004 44.4659 54.7096 44.5113 54.7491C44.5385 54.7734 44.5355 54.7674 44.5597 54.7887C44.9532 55.1446 45.2469 55.458 45.8251 55.6892C46.034 55.7713 46.1823 55.8595 46.4124 55.9174C46.6062 55.9691 46.9089 56.0147 47.1299 56.0147Z" fill="white"/>
<path fill-rule="evenodd" clip-rule="evenodd" d="M32.3506 24.028C32.3506 22.3182 32.8774 19.1755 33.2951 17.4961C33.3648 17.2102 33.6887 15.8655 33.7734 15.6647C33.9097 15.3483 34.1034 15.0258 34.3123 14.7642C34.612 14.39 35.06 14.1131 35.5595 14.2561C36.6009 14.5542 37.3184 15.9598 37.4365 17.055C37.5061 17.7121 37.4698 18.0711 37.3729 18.7404C37.3184 19.1207 37.1337 19.857 36.9672 20.1977C36.8219 20.5019 36.6948 20.8366 36.498 21.1378C36.2407 21.5241 36.2498 21.5424 35.9198 21.9683C35.5262 22.4733 34.7482 23.1792 34.1579 23.4743C33.2285 23.9367 32.4384 23.9884 32.3506 24.028ZM31.5908 33.3465C31.9934 33.3465 32.2174 33.2674 32.4414 33.0423C32.6533 32.8324 32.7775 32.6346 32.8077 32.3061C32.832 32.0201 32.7321 31.6854 32.6745 31.3812C32.614 31.0526 32.5837 30.7667 32.5353 30.4229L32.2659 27.3897C32.2598 27.0246 32.2659 26.6535 32.2659 26.2884C33.1952 26.2093 33.8067 26.0693 34.6453 25.7134L35.0025 25.5613C35.4324 25.3453 35.5202 25.2996 35.941 25.0106C36.159 24.8616 36.5888 24.533 36.7674 24.3474C36.8764 24.2348 37.0308 24.1284 37.161 23.9793C37.8906 23.1487 38.4052 22.4551 38.8714 21.4329C38.9259 21.3112 38.9653 21.2138 39.0228 21.0769C39.4042 20.1582 39.713 19.0508 39.713 17.7608C39.713 16.693 39.4648 15.5643 39.0288 14.6942C38.7836 14.2074 38.3901 13.5929 38.0056 13.2095C37.3729 12.5767 36.4132 11.9744 35.4687 11.9744C34.6544 11.9744 34.0429 12.1508 33.3799 12.5828C32.947 12.8658 32.4929 13.4012 32.1993 13.8241C32.0872 13.9853 31.7421 14.5938 31.6664 14.7885L31.4727 15.5247C31.3183 16.1575 31.1336 16.7873 30.9853 17.4627C30.9096 17.8034 30.8672 18.1107 30.7885 18.4514C30.7068 18.8013 30.6584 19.0994 30.6008 19.4767C30.5524 19.7992 30.4767 20.1551 30.4222 20.5111C30.1165 22.5129 30.0287 24.5634 30.0196 26.7113C30.0166 26.9273 30.0468 27.0185 30.0468 27.2193C30.0468 27.3897 30.0378 27.5875 30.0468 27.7548C30.0529 27.8795 30.0711 27.8734 30.0741 28.0073C30.1013 28.9291 30.1982 29.4402 30.2709 30.2981C30.3284 30.9644 30.4374 31.5698 30.5373 32.2026C30.5948 32.5768 30.6432 32.7654 30.8521 32.9875C31.0156 33.1579 31.2729 33.3465 31.5908 33.3465Z" fill="white"/>
<path fill-rule="evenodd" clip-rule="evenodd" d="M58.4247 47.2346L58.7274 45.251C58.7607 45.0016 58.7668 44.7917 58.8031 44.5361C58.8334 44.3171 58.8576 44.0463 58.8728 43.8455C58.9182 43.3101 58.9878 42.5556 58.9878 42.0384C58.9878 41.868 59.015 41.8345 59.015 41.6733C59.1906 41.6338 59.3632 41.579 59.5266 41.5394C59.7143 41.4908 59.8778 41.4451 60.0534 41.3873C60.2078 41.3356 60.3743 41.293 60.5438 41.2322C60.7164 41.1744 60.8617 41.1074 61.0191 41.0344C61.0978 40.9979 61.1674 40.9705 61.2371 40.9401C61.2704 40.9249 61.3158 40.9066 61.3521 40.8884L62.3208 40.3347C62.4692 40.2434 62.5751 40.143 62.7265 40.0639C62.7265 40.3347 62.6902 40.4838 62.669 40.715C62.6357 41.1105 62.451 42.1874 62.3511 42.5404C61.9364 43.955 61.7668 44.5878 60.8859 45.7287L60.5287 46.1029C60.456 46.1607 60.4137 46.2185 60.344 46.2824C60.1261 46.4771 59.7416 46.7205 59.4843 46.8604C59.3511 46.9334 59.127 47.0156 58.9848 47.0643L58.4247 47.2346ZM65 38.1777L65 38.9018C64.997 39.3672 64.9879 39.7779 64.9697 39.9483L64.9062 40.7302C64.7124 42.0749 64.7185 42.2209 64.3764 43.5595C64.2613 44.0159 64.2492 44.0037 64.113 44.4235C63.9344 44.9712 63.6892 45.4792 63.4197 45.9842C63.0111 46.7479 62.3239 47.5875 61.6427 48.123L61.0009 48.5824C60.2411 48.9931 60.3622 48.9596 59.4419 49.273C58.6457 49.5437 57.8526 49.5772 57.02 49.5772C56.3389 49.5772 55.7577 48.9414 55.9393 48.2386C55.9575 48.1717 55.9665 48.1078 55.9787 48.053L56.463 45.178C56.6689 43.7208 56.7415 42.5617 56.7415 41.0527L56.7113 39.9514C56.7143 39.7871 56.6901 39.7445 56.684 39.6137L56.5993 38.202C56.5478 37.551 56.4297 36.8452 56.3752 36.1972C56.3359 35.7286 56.2239 35.2388 56.4509 34.8312C56.5175 34.7095 56.5871 34.6212 56.687 34.533C57.0957 34.1892 57.6316 34.0949 58.0736 34.4326C58.2219 34.5452 58.3642 34.7034 58.4459 34.8798C58.5609 35.1232 58.6972 36.6231 58.7547 37.0794L58.9605 39.3307C59.0786 39.3216 59.2814 39.2547 59.3844 39.2212C60.2471 38.9565 60.9858 38.5519 61.7002 37.9921L62.6781 37.1646C62.7416 37.0855 62.7295 37.0977 62.7265 36.9608L62.6478 36.0207C62.6266 35.8473 62.6266 35.7226 62.6054 35.5552C62.5206 34.9255 62.5328 34.6486 63.0413 34.2288C63.4833 33.8668 64.2795 33.9763 64.6428 34.5513C64.8093 34.822 64.8456 35.3088 64.885 35.6921C64.9304 36.1302 64.9364 36.5866 64.9728 37.0155C64.9879 37.2072 64.997 37.6696 65 38.1777Z" fill="white"/>
<path fill-rule="evenodd" clip-rule="evenodd" d="M23.0205 48.987C23.4897 48.987 23.8288 48.9596 24.2738 48.8623C24.5917 48.7892 24.9095 48.6736 25.1668 48.5428C25.7481 48.2508 26.2839 47.8766 26.7229 47.3989C26.7864 47.3289 26.7955 47.2985 26.8652 47.2285C27.516 46.5562 28.1639 45.2237 28.1639 44.2714C28.1639 43.7877 28.2002 43.1975 28.0307 42.7655C27.5372 41.509 27.1437 40.9797 25.8783 40.4138C24.9126 39.9787 23.9559 40.067 22.9569 40.1978L21.8429 40.2617C21.0467 40.2617 20.5865 40.0578 20.1991 39.3977C20.1203 39.2638 20.0931 39.2151 20.0386 39.0508C19.8449 38.4576 19.751 37.9495 20.0326 37.3715C20.0901 37.2528 20.1536 37.1585 20.2475 37.0794C20.3474 36.9973 20.4473 36.9273 20.5684 36.8634C21.077 36.6048 21.6279 36.5409 22.3454 36.5927C23.0477 36.6444 24.0952 36.9395 24.7067 37.3532C24.9126 37.4901 25.1305 37.6636 25.4665 37.6636C26.5322 37.6636 27.1437 36.2063 25.9872 35.5035C25.6119 35.2753 25.3909 35.105 24.9368 34.9224C23.7107 34.4296 23.1628 34.3322 21.7278 34.3322C20.862 34.3322 19.8146 34.6 19.1486 35.0989C19.0517 35.1719 18.9548 35.2175 18.8701 35.2997C18.3161 35.826 17.9589 36.3219 17.7742 37.0764C17.5017 38.1716 17.5986 38.9413 18.0194 40.0092C18.2707 40.645 18.7671 41.3417 19.3121 41.7585C20.1658 42.4126 21.1254 42.5251 22.1789 42.4947L23.0417 42.4278C23.2173 42.4035 23.411 42.4217 23.6108 42.4065C23.7955 42.3913 23.962 42.3517 24.1739 42.3517C25.1305 42.3517 25.9449 42.8355 25.9449 43.8485C25.9449 44.4966 25.7451 44.9925 25.3666 45.4975C25.0669 45.8991 24.7158 46.2307 24.2496 46.4649C23.7955 46.6901 23.4534 46.7266 22.9388 46.7266C22.0578 46.7266 21.2404 46.2763 20.6531 45.6891C20.4412 45.4762 20.1748 45.1294 20.0326 44.8738C19.857 44.5544 19.7298 44.0463 19.5996 43.8698C18.8943 42.9146 17.5411 43.4257 17.5411 44.5239C17.5411 44.743 17.5986 44.8647 17.6592 45.029C17.7106 45.1719 17.7681 45.3271 17.8317 45.4762C17.9952 45.8382 18.2767 46.3554 18.5189 46.6505C19.0638 47.3107 19.3302 47.6453 20.1234 48.1443C20.9226 48.6493 21.973 48.987 23.0205 48.987Z" fill="white"/>
<path fill-rule="evenodd" clip-rule="evenodd" d="M58.1159 27.8978L58.455 27.8978C59.8354 27.8978 61.6427 27.3167 62.342 28.5366C62.7477 29.2455 62.9626 30.4959 62.1241 31.0496C61.558 31.4207 60.9283 31.3964 60.2532 31.3964C59.4177 31.3964 58.4913 31.0648 57.8586 30.6419C57.6013 30.4685 57.4257 30.3255 57.0503 30.3255C56.4903 30.3255 55.9544 30.8336 55.9544 31.4816C55.9544 32.1022 56.4146 32.4034 56.8566 32.6894C56.9504 32.7502 57.0322 32.7837 57.129 32.8415C57.5438 33.0971 58.5246 33.4195 59.012 33.5169C60.0352 33.7207 61.2916 33.7177 62.3208 33.4195C62.893 33.2553 63.226 33.0636 63.6407 32.7411C63.7679 32.6407 64.0373 32.3669 64.1312 32.2452C64.3915 31.9045 64.2462 32.1022 64.4218 31.8041C64.7487 31.2565 64.9455 30.5324 64.9455 29.8175C64.9455 29.0265 64.6428 28.0377 64.2583 27.3988C64.1947 27.2923 64.1312 27.2011 64.0585 27.0946C63.4621 26.2306 62.3148 25.4974 60.9555 25.4974L60.5045 25.4974C59.5297 25.4974 57.7648 25.9233 57.1109 25.2631C56.9686 25.1201 56.8626 25.035 56.7658 24.8494C56.3752 24.0827 56.7294 23.1944 57.1563 22.5555C57.5983 21.8892 58.4217 21.2625 59.3541 21.2625C60.3652 21.2625 61.5247 21.7462 62.118 22.5494C62.4873 23.0453 62.5812 23.1792 62.7992 23.815C62.8385 23.9367 62.8869 24.0432 62.9566 24.1344C63.7437 25.1414 65 24.4934 65 23.5503C65 22.9358 64.561 22.1235 64.2583 21.6671C64.1796 21.5454 64.0979 21.4359 64.0131 21.3234C63.9223 21.1986 63.8254 21.0952 63.7376 20.9796C63.6256 20.8335 63.2684 20.4989 63.1079 20.3711C62.9112 20.216 62.4389 19.8691 62.2088 19.7474C61.0161 19.1055 59.6568 18.7891 58.3127 19.1451C57.347 19.4006 56.6447 19.79 55.9332 20.508C55.5185 20.9218 55.1492 21.4481 54.8858 21.9683C54.3651 22.9844 54.1199 24.7246 54.7284 25.7377C54.8616 25.9568 54.8374 25.9872 55.0644 26.334C55.2218 26.5713 55.4065 26.7599 55.6214 26.9334C55.9121 27.1676 55.906 27.1828 56.2753 27.4049C56.6901 27.6544 57.5377 27.8978 58.1159 27.8978Z" fill="white"/>
<path fill-rule="evenodd" clip-rule="evenodd" d="M39.9945 33.7116C41.0057 33.7116 42.2045 33.5169 43.1581 33.2766L44.5264 32.8445C45.6556 32.3699 45.3771 30.6632 44.1238 30.6632C43.8241 30.6632 41.8291 31.4268 40.2458 31.4268C39.4557 31.4268 38.8442 31.4177 38.1721 31.0526C38.051 30.9857 38.0056 30.934 37.8966 30.8488C37.3608 30.4259 37.3457 29.4128 37.7453 28.7161C37.7786 28.6614 37.8391 28.5671 37.8815 28.5123C38.2932 27.9921 39.6888 26.8847 40.1187 26.3279C40.1792 26.2488 40.2186 26.2215 40.2821 26.1545C40.3336 26.0937 40.379 26.0298 40.4305 25.9659C41.0087 25.2236 41.3296 24.7003 41.7352 23.888C41.7716 23.815 41.8139 23.7359 41.8472 23.6629C42.1348 23.021 42.4769 22.0809 42.6616 21.4025C42.7615 21.0465 42.8372 20.6966 42.931 20.3194C43.0279 19.9422 43.0854 19.5375 43.1611 19.1664C43.2398 18.7739 43.594 16.1423 43.591 15.5034C43.5879 15.0501 43.6455 14.6851 43.6455 14.1466C43.6455 13.389 42.6616 12.6741 41.7867 13.4073C41.7352 13.4529 41.6565 13.5564 41.6232 13.6111C41.4053 13.9701 41.4446 14.3656 41.4264 14.9102C41.4113 15.4639 41.2266 17.1311 41.154 17.63C40.9693 18.9139 40.7635 20.0547 40.3548 21.2868C40.1308 21.9622 39.828 22.7411 39.4617 23.3526C39.1318 23.9032 39.1106 23.9458 38.72 24.4721C38.5233 24.7399 38.0692 25.2236 37.8361 25.4487L37.049 26.1545C36.5586 26.6535 36.4708 26.6504 35.941 27.2984C35.0843 28.3359 34.9995 30.2251 35.5717 31.436C35.8956 32.1174 36.5737 32.7746 37.2336 33.0971C37.3517 33.1549 37.4698 33.2187 37.6181 33.2766C38.3114 33.5443 39.1529 33.7116 39.9945 33.7116Z" fill="white"/>
<path fill-rule="evenodd" clip-rule="evenodd" d="M38.4748 37.2985C38.8623 37.2985 39.0682 37.2102 39.4617 37.0764C40.1096 36.8573 41.4174 36.5653 42.1015 36.5653C43.0097 36.5653 43.2216 36.5288 44.1147 36.8269C44.5658 36.979 44.9714 37.4445 45.0653 37.8765C45.1773 38.4059 45.038 39.0356 44.708 39.4372C44.4083 39.8023 44.2176 39.9392 43.8907 40.2282C43.818 40.2921 43.7696 40.356 43.6969 40.426L43.0642 41.004C42.5556 41.5121 42.5375 41.5547 42.1076 42.0475L41.9229 42.2848C41.7958 42.443 41.6989 42.5921 41.5839 42.7624C41.1086 43.4804 40.7998 44.0767 40.4819 44.8768C39.9582 46.2002 39.8795 46.6262 39.5435 47.9982C39.4193 48.5124 39.1378 50.2313 39.0954 50.7667C39.0197 51.7707 38.8684 52.7594 38.8684 53.7847C38.8684 54.3171 39.3467 54.886 39.937 54.886C40.3154 54.886 40.5152 54.8312 40.7726 54.5696C40.8634 54.4753 40.933 54.4084 40.9966 54.2836C41.1691 53.9368 41.1025 53.3314 41.1479 52.9146C41.1812 52.6347 41.2115 52.2666 41.2297 51.9776C41.2478 51.6794 41.2902 51.3509 41.3144 51.0466C41.3659 50.4503 41.6111 49.0478 41.7413 48.4272C41.8684 47.8248 42.0016 47.4172 42.1681 46.8239C42.374 46.0907 42.8523 45.0168 43.258 44.3627C43.3306 44.244 43.373 44.1528 43.4487 44.0463C43.5213 43.9429 43.5819 43.8607 43.6576 43.7451C43.8059 43.52 44.0451 43.2523 44.2297 43.0515C44.4174 42.8476 44.5567 42.6377 44.8503 42.4035L46.4185 40.931C46.7303 40.5598 47.0027 40.1643 47.1632 39.6441C47.3963 38.8805 47.4054 37.8157 47.1511 36.9942C47.0451 36.6413 46.8362 36.2915 46.6213 36.0025C46.5395 35.8929 46.4911 35.823 46.3942 35.7226C45.8524 35.1871 45.5526 35.0076 44.8655 34.7156C44.7807 34.6821 44.7716 34.6699 44.6868 34.6425C43.482 34.2805 43.2731 34.3048 42.0168 34.3048C41.0753 34.3048 40.046 34.5574 39.2862 34.7521C39.044 34.8129 38.2902 35.032 38.0904 35.1324C37.9148 35.2206 37.7664 35.3392 37.6575 35.4853C37.2397 36.045 37.4244 36.8786 38.0631 37.1768C38.1539 37.2194 38.3628 37.2985 38.4748 37.2985Z" fill="white"/>
<path fill-rule="evenodd" clip-rule="evenodd" d="M54.1835 49.0996C54.462 49.0996 54.8192 48.9231 54.9615 48.7801L55.1855 48.4698C55.349 48.1595 55.5458 46.5197 55.5851 46.1029C55.7123 44.7582 55.8697 43.4622 55.8697 41.9836C55.8697 41.579 55.903 41.3174 55.8697 40.9371C55.8455 40.6176 55.8666 40.1704 55.8697 39.8388L55.8122 38.7953C55.7607 37.7792 55.6668 36.7874 55.5276 35.7773C55.461 35.3119 55.3429 35.0015 54.904 34.7642C54.2955 34.4387 53.4932 34.7855 53.3328 35.4822C53.2511 35.8412 53.4115 36.6474 53.4509 37.1311C53.6809 39.9331 53.7566 41.9745 53.4569 44.7825C53.3691 45.6192 53.2965 46.2885 53.1602 47.1099C53.0543 47.7457 52.9181 48.2933 53.3903 48.7679C53.5841 48.9627 53.8807 49.0996 54.1835 49.0996Z" fill="white"/>
<path fill-rule="evenodd" clip-rule="evenodd" d="M28.1063 33.3739C28.8208 33.3739 29.2598 32.8871 29.2598 32.16C29.2598 31.9227 29.2022 31.7402 29.1659 31.5181C29.063 30.8853 28.8965 29.4493 28.8662 28.8287C28.8299 28.0742 28.7814 27.3319 28.7814 26.5683L28.8995 23.9762C28.9267 23.7146 28.957 23.4378 28.9812 23.1548C29.0236 22.6437 29.1084 22.0535 29.2053 21.5759L29.511 20.0486C29.511 19.568 29.2265 19.1816 28.8178 19.0234C28.3516 18.8378 27.9429 18.9017 27.5947 19.2515C27.2617 19.5832 27.1588 20.438 27.0771 20.9309C27.0196 21.2534 26.959 21.5607 26.9075 21.8618L26.5927 24.822C26.5412 25.4183 26.5624 26.4223 26.5624 27.0216C26.5624 28.3206 26.6896 29.5315 26.8197 30.7149C26.8863 31.3021 26.9772 31.8771 27.068 32.443C27.1528 32.9723 27.6099 33.3739 28.1063 33.3739Z" fill="white"/>
<path fill-rule="evenodd" clip-rule="evenodd" d="M53.1148 53.8699C53.572 53.8699 53.9806 53.5657 54.1441 53.1519C54.1895 53.0363 54.2047 52.945 54.244 52.8294C54.2773 52.7199 54.3167 52.5982 54.35 52.4826C54.4408 52.1571 54.5589 51.4208 54.6557 51.0132C54.9433 49.781 53.5296 49.0843 52.7667 49.9058C52.5245 50.1674 52.5275 50.3378 52.4307 50.7241L52.1158 52.1601C52.0159 52.5617 51.9917 52.3609 51.9917 52.8264C51.9917 53.1306 52.1764 53.3953 52.3338 53.5535C52.4942 53.7117 52.8121 53.8699 53.1148 53.8699Z" fill="white"/>
<path fill-rule="evenodd" clip-rule="evenodd" d="M29.0055 18.4393C29.838 18.4393 30.065 17.6817 30.1952 17.0063C30.2133 16.8999 30.2285 16.7751 30.2557 16.6443C30.2799 16.5135 30.3132 16.4131 30.3435 16.2823C30.5282 15.5521 30.8067 14.9315 30.1074 14.3687C29.5958 13.9579 28.9267 14.1405 28.624 14.4964C28.4394 14.7185 28.3304 15.0319 28.2547 15.3392C28.1094 15.9081 28.0579 16.2792 27.9399 16.8329C27.8551 17.2497 27.7582 17.7578 28.1941 18.1259C28.3425 18.2476 28.3183 18.2719 28.5393 18.3449C28.6634 18.3845 28.8571 18.4393 29.0055 18.4393Z" fill="white"/>
</g>
<defs>
<filter id="filter0_d_1_552" x="0.152308" y="0.137598" width="68.6954" height="59.7248" filterUnits="userSpaceOnUse" color-interpolation-filters="sRGB">
<feFlood flood-opacity="0" result="BackgroundImageFix"/>
<feColorMatrix in="SourceAlpha" type="matrix" values="0 0 0 0 0 0 0 0 0 0 0 0 0 0 0 0 0 0 127 0" result="hardAlpha"/>
<feOffset/>
<feGaussianBlur stdDeviation="1.92385"/>
<feComposite in2="hardAlpha" operator="out"/>
<feColorMatrix type="matrix" values="0 0 0 0 1 0 0 0 0 1 0 0 0 0 1 0 0 0 1 0"/>
<feBlend mode="normal" in2="BackgroundImageFix" result="effect1_dropShadow_1_552"/>
<feBlend mode="normal" in="SourceGraphic" in2="effect1_dropShadow_1_552" result="shape"/>
</filter>
</defs>
</svg>
