<svg width="36" height="36" viewBox="0 0 36 36" fill="none" xmlns="http://www.w3.org/2000/svg">
<rect width="36" height="36" rx="9" fill="#641CFE"/>
<path d="M5.41105 16.6303C5.69312 17.105 6.10313 17.4851 6.5913 17.7241C6.82279 17.8376 6.92118 18.123 6.81089 18.3617C6.7006 18.6001 6.42349 18.7015 6.192 18.5879C6.00633 18.4953 5.8286 18.387 5.66039 18.264C6.16959 19.819 7.5841 20.867 9.17734 20.8697H9.20511C9.17833 20.6057 9.17238 20.34 9.18706 20.0752C9.39276 17.5249 11.4795 15.5735 13.9636 15.6087H16.6058C16.8622 15.6087 17.0699 15.3945 17.0699 15.1305C17.0699 14.3381 17.6936 13.6957 18.4628 13.6957H19.8557C20.1122 13.6957 20.3199 13.9098 20.3199 14.174C20.3199 14.438 20.1122 14.6522 19.8557 14.6522H18.4628C18.2063 14.6522 17.9987 14.8663 17.9987 15.1305C17.9987 15.9229 17.375 16.5652 16.6058 16.5652H13.9636C11.9691 16.529 10.2876 18.0889 10.1142 20.1359C10.0916 20.498 10.1188 20.8615 10.1949 21.2158C10.215 21.3115 10.2386 21.4014 10.2651 21.4919C10.2701 21.5095 10.2753 21.5276 10.2808 21.5454C10.3096 21.6411 10.3417 21.732 10.3774 21.8223L10.3885 21.8495C10.8337 22.9466 11.7447 23.771 12.8581 24.0845L12.892 24.0935C12.9769 24.1166 13.0632 24.1356 13.1505 24.1523C13.1941 24.1605 13.2388 24.1666 13.2828 24.1734C13.3461 24.183 13.4088 24.193 13.4728 24.1993C13.5875 24.2102 13.7049 24.2175 13.82 24.2175C14.9949 24.2143 16.0991 23.6395 16.799 22.6674C16.579 22.5228 16.3679 22.3646 16.1666 22.194C15.9694 22.025 15.9424 21.7234 16.1065 21.5203C16.2703 21.3172 16.5631 21.2894 16.7603 21.4584C18.0431 22.5577 19.7373 23.0056 21.3756 22.6785C23.0138 22.3511 24.4226 21.2833 25.2134 19.7695C24.9643 19.4207 24.7745 19.0309 24.6521 18.6165C24.5813 18.3641 24.7213 18.0999 24.9659 18.0251C25.2103 17.9501 25.4677 18.0926 25.5421 18.3439C25.902 19.6012 27.0431 20.4475 28.3148 20.4001C29.5865 20.3527 30.6654 19.4236 30.936 18.1428C31.2067 16.8621 30.6005 15.5551 29.4629 14.9675C29.4038 15.2456 29.3245 15.5188 29.2257 15.7848C29.1325 16.0308 28.8631 16.1526 28.6241 16.0564C28.385 15.9603 28.267 15.6826 28.3602 15.4366C28.506 15.05 28.6019 14.6454 28.6449 14.2333C28.6524 14.1673 28.657 14.1056 28.6616 14.042C28.6695 13.9266 28.677 13.8119 28.677 13.6957C28.677 11.6221 27.3772 9.78591 25.4604 9.15227C25.6064 9.37969 25.7361 9.61795 25.8486 9.86478C25.926 10.0211 25.9139 10.2087 25.8173 10.3531C25.7207 10.4976 25.5548 10.5761 25.3854 10.5575C25.216 10.5387 25.0702 10.4259 25.0054 10.2636C23.9909 8.02352 21.4908 6.94319 19.2285 7.76769C18.8861 7.88906 18.559 8.05151 18.2535 8.25156C18.0385 8.39582 17.7509 8.33329 17.6109 8.11199C17.4708 7.8907 17.5315 7.59421 17.7465 7.44995C17.8166 7.40213 17.89 7.36106 17.962 7.31713C16.9787 6.83612 15.825 6.9058 14.9032 7.50226C15.1185 7.69821 15.3109 7.91931 15.4767 8.16124C15.5757 8.30121 15.5933 8.48532 15.5231 8.64265C15.4529 8.79999 15.3055 8.90604 15.1379 8.91953C14.9703 8.93322 14.8086 8.8523 14.7152 8.70825C14.4962 8.38683 14.2157 8.11465 13.8912 7.90868H13.8868C12.6782 7.13445 11.0963 7.43319 10.233 8.59893C10.4167 8.65287 10.596 8.72173 10.7694 8.8049C10.9231 8.8758 11.0276 9.0268 11.0425 9.19967C11.0572 9.37254 10.98 9.5401 10.8406 9.63756C10.7011 9.73483 10.5214 9.74688 10.3709 9.66862C9.61909 9.30266 8.74788 9.30164 7.9953 9.66617C7.24292 10.0305 6.6877 10.7222 6.48161 11.5522C6.73134 11.4543 6.9904 11.3846 7.25462 11.3446C7.50872 11.3072 7.74398 11.4893 7.78008 11.7508C7.81618 12.0124 7.63964 12.2547 7.38554 12.2919C6.96105 12.3548 6.55659 12.5185 6.2041 12.7702L6.19795 12.7755C4.98854 13.6362 4.64042 15.3193 5.40451 16.613C5.40728 16.6197 5.40828 16.6254 5.41105 16.6303Z" fill="white"/>
<path d="M24.7306 25.6522C27.1625 25.6522 29.1412 24.0434 29.1412 22.0653C29.1404 21.7898 29.1005 21.5158 29.0228 21.2522C27.9185 21.5113 26.7599 21.2324 25.8815 20.4956C24.7953 22.3399 22.9176 23.5371 20.8307 23.7157C21.5035 24.6859 22.5217 25.3424 23.6629 25.5418C24.014 25.6166 24.372 25.6536 24.7306 25.6522Z" fill="white"/>
<path d="M19.7629 23.7085C19.1103 23.6495 18.47 23.4897 17.8634 23.2341C17.8465 23.232 17.8299 23.2285 17.8134 23.224C17.767 23.2036 17.7206 23.1791 17.6741 23.158C17.6555 23.1495 17.6355 23.1437 17.617 23.1345C17.4557 23.3685 17.2742 23.5869 17.0747 23.787C17.0997 24.5588 17.7132 25.1718 18.4628 25.174C18.8778 25.1648 19.2761 25.3426 19.5534 25.6607L22.2388 28.8294C22.3344 28.9367 22.4689 28.9986 22.6102 29C22.8829 29.0008 23.1047 28.774 23.1057 28.493V26.382C21.6648 26.0388 20.4427 25.0614 19.7629 23.7085Z" fill="white"/>
</svg>
