<svg width="36" height="36" viewBox="0 0 36 36" fill="none" xmlns="http://www.w3.org/2000/svg">
<rect width="36" height="36" rx="9" fill="#641CFE"/>
<path d="M24.161 12.231L19.2325 10.3385V8.66202H21.9824C22.3724 8.66202 22.605 8.22733 22.3886 7.90285L22.0988 7.46812C21.9894 7.3041 21.9894 7.09042 22.0988 6.92635L22.3886 6.49161C22.605 6.16714 22.3724 5.73245 21.9824 5.73245H19.2325C19.2325 5.32794 18.9046 5 18.5001 5C18.0956 5 17.7677 5.32794 17.7677 5.73245V10.3385L12.8392 12.231H24.161Z" fill="white"/>
<path d="M6.73242 15.1608C7.33677 15.1608 7.36738 15.7709 7.36738 15.8932C7.36738 16.0155 7.33677 16.6256 6.73242 16.6256H30.2676C29.7456 16.6256 29.7305 15.9682 29.7305 15.8932C29.7305 15.8183 29.7456 15.1608 30.2676 15.1608C30.6721 15.1608 31 14.8329 31 14.4284C31 14.0239 30.6721 13.6959 30.2676 13.6959H6.73242C6.32793 13.6959 6 14.0239 6 14.4284C6 14.8329 6.32793 15.1608 6.73242 15.1608Z" fill="white"/>
<path d="M18.4725 25.9479C18.0686 25.9479 17.74 26.2765 17.74 26.6803V30H19.2049V26.6803C19.2049 26.2765 18.8763 25.9479 18.4725 25.9479Z" fill="white"/>
<path d="M24.0876 30H30.2676C30.6721 30 31 29.6721 31 29.2675V18.0905H24.0876V30ZM26.5968 21.3094C26.5968 20.9049 26.9248 20.5769 27.3292 20.5769C27.7337 20.5769 28.0617 20.9049 28.0617 21.3094V22.2859C28.0617 22.6904 27.7337 23.0184 27.3292 23.0184C26.9248 23.0184 26.5968 22.6904 26.5968 22.2859V21.3094ZM26.5968 25.2155C26.5968 24.811 26.9248 24.483 27.3292 24.483C27.7337 24.483 28.0617 24.811 28.0617 25.2155V26.192C28.0617 26.5965 27.7337 26.9245 27.3292 26.9245C26.9248 26.9245 26.5968 26.5965 26.5968 26.192V25.2155Z" fill="white"/>
<path d="M14.3221 30H16.2752V26.6803C16.2752 25.4687 17.2609 24.483 18.4725 24.483C19.6841 24.483 20.6697 25.4688 20.6697 26.6803V30H22.6228V18.0905H14.3221V30ZM19.2691 21.3094C19.2691 20.9049 19.5971 20.5769 20.0016 20.5769C20.4061 20.5769 20.734 20.9049 20.734 21.3094V22.2859C20.734 22.6904 20.4061 23.0184 20.0016 23.0184C19.5971 23.0184 19.2691 22.6904 19.2691 22.2859V21.3094ZM16.2662 21.3094C16.2662 20.9049 16.5941 20.5769 16.9986 20.5769C17.4031 20.5769 17.7311 20.9049 17.7311 21.3094V22.2859C17.7311 22.6904 17.4031 23.0184 16.9986 23.0184C16.5941 23.0184 16.2662 22.6904 16.2662 22.2859V21.3094Z" fill="white"/>
<path d="M6.0002 29.2675C6.0002 29.6721 6.32812 30 6.73262 30H12.8573V18.0905H6.0002V29.2675ZM8.75542 21.3094C8.75542 20.9049 9.08335 20.5769 9.48784 20.5769C9.89233 20.5769 10.2203 20.9049 10.2203 21.3094V22.2859C10.2203 22.6904 9.89233 23.0184 9.48784 23.0184C9.08335 23.0184 8.75542 22.6904 8.75542 22.2859V21.3094ZM8.75542 25.2155C8.75542 24.811 9.08335 24.483 9.48784 24.483C9.89233 24.483 10.2203 24.811 10.2203 25.2155V26.192C10.2203 26.5965 9.89233 26.9245 9.48784 26.9245C9.08335 26.9245 8.75542 26.5965 8.75542 26.192V25.2155Z" fill="white"/>
</svg>
