<svg width="16" height="16" viewBox="0 0 16 16" fill="none" xmlns="http://www.w3.org/2000/svg">
<path d="M8.01758 3.93945C10.2324 3.93945 12.0605 5.76758 12.0605 7.98242C12.0605 10.2324 10.2324 12.0254 8.01758 12.0254C5.76758 12.0254 3.97461 10.2324 3.97461 7.98242C3.97461 5.76758 5.76758 3.93945 8.01758 3.93945ZM8.01758 10.6191C9.45898 10.6191 10.6191 9.45898 10.6191 7.98242C10.6191 6.54102 9.45898 5.38086 8.01758 5.38086C6.54102 5.38086 5.38086 6.54102 5.38086 7.98242C5.38086 9.45898 6.57617 10.6191 8.01758 10.6191ZM13.1504 3.79883C13.1504 4.32617 12.7285 4.74805 12.2012 4.74805C11.6738 4.74805 11.252 4.32617 11.252 3.79883C11.252 3.27148 11.6738 2.84961 12.2012 2.84961C12.7285 2.84961 13.1504 3.27148 13.1504 3.79883ZM15.8223 4.74805C15.8926 6.04883 15.8926 9.95117 15.8223 11.252C15.752 12.5176 15.4707 13.6074 14.5566 14.5566C13.6426 15.4707 12.5176 15.752 11.252 15.8223C9.95117 15.8926 6.04883 15.8926 4.74805 15.8223C3.48242 15.752 2.39258 15.4707 1.44336 14.5566C0.529297 13.6074 0.248047 12.5176 0.177734 11.252C0.107422 9.95117 0.107422 6.04883 0.177734 4.74805C0.248047 3.48242 0.529297 2.35742 1.44336 1.44336C2.39258 0.529297 3.48242 0.248047 4.74805 0.177734C6.04883 0.107422 9.95117 0.107422 11.252 0.177734C12.5176 0.248047 13.6426 0.529297 14.5566 1.44336C15.4707 2.35742 15.752 3.48242 15.8223 4.74805ZM14.1348 12.623C14.5566 11.6035 14.4512 9.14258 14.4512 7.98242C14.4512 6.85742 14.5566 4.39648 14.1348 3.3418C13.8535 2.67383 13.3262 2.11133 12.6582 1.86523C11.6035 1.44336 9.14258 1.54883 8.01758 1.54883C6.85742 1.54883 4.39648 1.44336 3.37695 1.86523C2.67383 2.14648 2.14648 2.67383 1.86523 3.3418C1.44336 4.39648 1.54883 6.85742 1.54883 7.98242C1.54883 9.14258 1.44336 11.6035 1.86523 12.623C2.14648 13.3262 2.67383 13.8535 3.37695 14.1348C4.39648 14.5566 6.85742 14.4512 8.01758 14.4512C9.14258 14.4512 11.6035 14.5566 12.6582 14.1348C13.3262 13.8535 13.8887 13.3262 14.1348 12.623Z" fill="white"/>
</svg>
