<svg width="37" height="38" viewBox="0 0 37 38" fill="none" xmlns="http://www.w3.org/2000/svg">
<g filter="url(#filter0_d_1_978)">
<path d="M32.0658 25.5492L28.1501 21.6417C26.7516 20.2461 24.3742 20.8044 23.8149 22.6185C23.3953 23.8746 21.9969 24.5723 20.7382 24.2932C17.9413 23.5954 14.1654 19.967 13.4662 17.0364C13.0467 15.7804 13.8858 14.3849 15.1444 13.9663C16.9624 13.4081 17.5218 11.0357 16.1233 9.64013L12.2076 5.73265C11.0888 4.75578 9.41066 4.75578 8.43174 5.73265L5.77465 8.38416C3.11756 11.1752 6.05434 18.5715 12.6271 25.1305C19.1999 31.6895 26.6118 34.7597 29.4087 31.9686L32.0658 29.3171C33.0448 28.2007 33.0448 26.526 32.0658 25.5492Z" fill="white"/>
</g>
<defs>
<filter id="filter0_d_1_978" x="0.700049" y="0.9" width="36.2" height="36.2" filterUnits="userSpaceOnUse" color-interpolation-filters="sRGB">
<feFlood flood-opacity="0" result="BackgroundImageFix"/>
<feColorMatrix in="SourceAlpha" type="matrix" values="0 0 0 0 0 0 0 0 0 0 0 0 0 0 0 0 0 0 127 0" result="hardAlpha"/>
<feOffset/>
<feGaussianBlur stdDeviation="2.05"/>
<feComposite in2="hardAlpha" operator="out"/>
<feColorMatrix type="matrix" values="0 0 0 0 1 0 0 0 0 1 0 0 0 0 1 0 0 0 1 0"/>
<feBlend mode="normal" in2="BackgroundImageFix" result="effect1_dropShadow_1_978"/>
<feBlend mode="normal" in="SourceGraphic" in2="effect1_dropShadow_1_978" result="shape"/>
</filter>
</defs>
</svg>
