<svg width="36" height="36" viewBox="0 0 36 36" fill="none" xmlns="http://www.w3.org/2000/svg">
<rect width="36" height="36" rx="9" fill="#641CFE"/>
<path d="M15.52 18.1202C15.48 17.9068 15.46 17.6935 15.46 17.4802C15.46 17.1202 15.5133 16.7935 15.62 16.5002C15.74 16.2068 15.88 15.9468 16.04 15.7202C16.2133 15.4802 16.4066 15.2668 16.62 15.0802C16.8333 14.8802 17.04 14.7002 17.24 14.5402C17.5866 14.2602 17.8866 13.9935 18.14 13.7402C18.4066 13.4868 18.54 13.2202 18.54 12.9402C18.54 12.6468 18.4333 12.4135 18.22 12.2402C18.02 12.0668 17.7 11.9802 17.26 11.9802C16.7 11.9802 16.3066 12.1135 16.08 12.3802C15.8666 12.6468 15.76 12.9535 15.76 13.3002H12.34V12.8002C12.34 12.0402 12.4866 11.4002 12.78 10.8802C13.0733 10.3468 13.4533 9.92016 13.92 9.60016C14.4 9.26682 14.94 9.02682 15.54 8.88016C16.14 8.73349 16.7533 8.66016 17.38 8.66016C17.9666 8.66016 18.54 8.73349 19.1 8.88016C19.6733 9.02682 20.18 9.26016 20.62 9.58016C21.0733 9.88682 21.4333 10.2935 21.7 10.8002C21.98 11.2935 22.12 11.8935 22.12 12.6002C22.0933 12.9868 22.02 13.3402 21.9 13.6602C21.7933 13.9668 21.6466 14.2535 21.46 14.5202C21.2866 14.7868 21.0733 15.0468 20.82 15.3002C20.58 15.5402 20.32 15.7868 20.04 16.0402C19.7333 16.3335 19.4466 16.6402 19.18 16.9602C18.9266 17.2668 18.8 17.6535 18.8 18.1202H15.52ZM17.22 18.9802C17.4866 18.9802 17.74 19.0202 17.98 19.1002C18.2333 19.1802 18.4533 19.3068 18.64 19.4802C18.84 19.6402 19 19.8535 19.12 20.1202C19.24 20.3735 19.3 20.6802 19.3 21.0402C19.3 21.4135 19.24 21.7335 19.12 22.0002C19 22.2668 18.84 22.4868 18.64 22.6602C18.4533 22.8335 18.2333 22.9602 17.98 23.0402C17.74 23.1335 17.4866 23.1802 17.22 23.1802C16.94 23.1802 16.6733 23.1335 16.42 23.0402C16.1666 22.9602 15.94 22.8335 15.74 22.6602C15.54 22.4868 15.38 22.2668 15.26 22.0002C15.14 21.7335 15.08 21.4135 15.08 21.0402C15.08 20.6802 15.14 20.3735 15.26 20.1202C15.38 19.8535 15.54 19.6402 15.74 19.4802C15.94 19.3068 16.1666 19.1802 16.42 19.1002C16.6733 19.0202 16.94 18.9802 17.22 18.9802Z" fill="white"/>
<path d="M21.6012 23.1718C21.608 23.0339 21.6273 22.8989 21.6589 22.7669C21.7123 22.5441 21.7937 22.3498 21.9032 22.1841C22.021 22.0204 22.1462 21.8802 22.2788 21.7637C22.4216 21.6408 22.5729 21.5375 22.7326 21.4536C22.8943 21.3615 23.0489 21.2807 23.1964 21.2113C23.4524 21.0895 23.6776 20.9689 23.8719 20.8497C24.0745 20.7325 24.1966 20.5872 24.2381 20.4139C24.2816 20.2324 24.2502 20.0722 24.1438 19.9333C24.0458 19.7964 23.8606 19.6953 23.5883 19.63C23.2417 19.547 22.9785 19.5712 22.7987 19.7026C22.6272 19.836 22.5157 20.01 22.4643 20.2245L20.3478 19.7175L20.422 19.4081C20.5346 18.9377 20.7203 18.5634 20.9789 18.2851C21.2395 17.9985 21.5379 17.7908 21.8742 17.662C22.2206 17.5269 22.5904 17.4584 22.9835 17.4566C23.3765 17.4548 23.767 17.5003 24.1548 17.5932C24.5178 17.6802 24.8618 17.8106 25.1866 17.9844C25.5196 18.1602 25.7986 18.3797 26.0234 18.643C26.2585 18.9 26.421 19.205 26.5109 19.5581C26.6111 19.9049 26.6087 20.297 26.504 20.7343C26.4301 20.9696 26.3324 21.1774 26.2107 21.3576C26.0992 21.5316 25.9659 21.6873 25.8109 21.8246C25.6641 21.964 25.4935 22.0932 25.2992 22.2124C25.1151 22.3254 24.9176 22.4395 24.7067 22.5547C24.4735 22.6908 24.2506 22.8381 24.0381 22.9966C23.8359 23.1488 23.7002 23.3693 23.631 23.6581L21.6012 23.1718ZM22.5257 23.9561C22.6907 23.9956 22.8416 24.0579 22.9782 24.143C23.1231 24.2301 23.2405 24.3411 23.3303 24.476C23.4304 24.6047 23.4978 24.7604 23.5325 24.9433C23.5692 25.1178 23.5609 25.3165 23.5075 25.5393C23.4521 25.7703 23.3676 25.9595 23.2538 26.1067C23.14 26.2539 23.0083 26.3664 22.8589 26.444C22.7176 26.5236 22.5627 26.5693 22.3941 26.5813C22.2317 26.6035 22.068 26.5948 21.903 26.5552C21.7297 26.5137 21.5716 26.4453 21.4287 26.35C21.2838 26.2629 21.1623 26.1509 21.0642 26.014C20.9661 25.8771 20.8997 25.7172 20.865 25.5344C20.8303 25.3516 20.8406 25.1447 20.8959 24.9136C20.9493 24.6908 21.0319 24.51 21.1437 24.371C21.2575 24.2237 21.3882 24.1154 21.5357 24.0461C21.6851 23.9685 21.8442 23.9237 22.0128 23.9117C22.1815 23.8998 22.3524 23.9146 22.5257 23.9561Z" fill="white"/>
<path d="M9.85639 20.4613C9.83292 20.3812 9.81711 20.3003 9.80895 20.2187C9.79518 20.0809 9.80309 19.9539 9.83268 19.8376C9.86738 19.7208 9.911 19.616 9.96354 19.5231C10.0207 19.4247 10.0865 19.3356 10.161 19.2561C10.2349 19.1714 10.3071 19.0946 10.3775 19.0257C10.4995 18.9054 10.604 18.7918 10.6913 18.6852C10.7836 18.5781 10.8244 18.471 10.8137 18.3638C10.8025 18.2516 10.7528 18.1664 10.6645 18.1083C10.5814 18.0496 10.4556 18.0287 10.2873 18.0455C10.073 18.0669 9.92762 18.133 9.85109 18.2437C9.77967 18.3539 9.75059 18.4753 9.76385 18.6079L8.45535 18.7387L8.43622 18.5474C8.40715 18.2567 8.43879 18.0062 8.53113 17.796C8.62296 17.5807 8.75203 17.4029 8.91834 17.2627C9.08924 17.1168 9.28666 17.0043 9.51062 16.9252C9.73457 16.8462 9.96643 16.7946 10.2062 16.7707C10.4307 16.7482 10.6528 16.7544 10.8727 16.7891C11.0977 16.8232 11.3004 16.8931 11.481 16.9987C11.6662 17.0987 11.8195 17.2406 11.9409 17.4242C12.0669 17.6023 12.1434 17.8265 12.1704 18.0968C12.175 18.2458 12.1605 18.3838 12.1268 18.5108C12.0977 18.6322 12.0526 18.7475 11.9914 18.8567C11.9352 18.9653 11.8636 19.073 11.7763 19.1796C11.6937 19.2806 11.6036 19.3849 11.5062 19.4925C11.4001 19.6165 11.3021 19.7448 11.2123 19.8774C11.1272 20.0045 11.0935 20.1572 11.1113 20.3358L9.85639 20.4613ZM10.5397 20.7253C10.6417 20.7151 10.7402 20.7207 10.8351 20.7421C10.9351 20.763 11.0241 20.8031 11.1021 20.8623C11.1848 20.9158 11.2541 20.9913 11.3103 21.0888C11.3659 21.1811 11.4005 21.2961 11.4143 21.4339C11.4286 21.5767 11.4179 21.7014 11.3822 21.8081C11.3465 21.9147 11.2937 22.005 11.2238 22.0789C11.159 22.1524 11.0796 22.2093 10.9858 22.2496C10.8975 22.2945 10.8024 22.322 10.7004 22.3322C10.5932 22.3429 10.4894 22.3353 10.3889 22.3092C10.2889 22.2883 10.1974 22.2485 10.1142 22.1899C10.0311 22.1312 9.96143 22.0531 9.90532 21.9557C9.84921 21.8583 9.81401 21.7381 9.79973 21.5953C9.78596 21.4575 9.79719 21.3379 9.83341 21.2364C9.86912 21.1298 9.92218 21.042 9.99258 20.9732C10.0625 20.8992 10.1443 20.8421 10.2382 20.8018C10.3321 20.7615 10.4326 20.736 10.5397 20.7253Z" fill="white"/>
</svg>
