<svg width="68" height="68" viewBox="0 0 68 68" fill="none" xmlns="http://www.w3.org/2000/svg">
<path d="M34 0L40.3246 6.98475L49.1314 3.36706L51.7212 12.3354L61.2659 12.8013L59.6079 21.9771L68 26.4343L62.4226 34L68 41.5657L59.6079 46.0229L61.2659 55.1987L51.7212 55.6646L49.1314 64.6329L40.3246 61.0153L34 68L27.6754 61.0153L18.8686 64.6329L16.2788 55.6646L6.73412 55.1987L8.39211 46.0229L0 41.5657L5.57739 34L0 26.4343L8.39211 21.9771L6.73412 12.8013L16.2788 12.3354L18.8686 3.36706L27.6754 6.98475L34 0Z" fill="#FEC501"/>
</svg>
