<svg width="16" height="16" viewBox="0 0 16 16" fill="none" xmlns="http://www.w3.org/2000/svg">
<path d="M13.4844 2.44531C14.9609 3.92188 15.875 5.85547 15.875 7.96484C15.875 12.2539 12.2891 15.7695 7.96484 15.7695C6.66406 15.7695 5.39844 15.418 4.23828 14.8203L0.125 15.875L1.21484 11.832C0.546875 10.6719 0.160156 9.33594 0.160156 7.92969C0.160156 3.64062 3.67578 0.125 7.96484 0.125C10.0742 0.125 12.043 0.96875 13.4844 2.44531ZM7.96484 14.4336C11.5508 14.4336 14.5391 11.5156 14.5391 7.96484C14.5391 6.20703 13.8008 4.58984 12.5703 3.35938C11.3398 2.12891 9.72266 1.46094 8 1.46094C4.41406 1.46094 1.49609 4.37891 1.49609 7.92969C1.49609 9.16016 1.84766 10.3555 2.48047 11.4102L2.65625 11.6562L1.98828 14.0469L4.44922 13.3789L4.66016 13.5195C5.67969 14.1172 6.80469 14.4336 7.96484 14.4336ZM11.5508 9.58203C11.7266 9.6875 11.8672 9.72266 11.9023 9.82812C11.9727 9.89844 11.9727 10.2852 11.7969 10.7422C11.6211 11.1992 10.8477 11.6211 10.4961 11.6562C9.86328 11.7617 9.37109 11.7266 8.14062 11.1641C6.17188 10.3203 4.90625 8.35156 4.80078 8.24609C4.69531 8.10547 4.02734 7.19141 4.02734 6.20703C4.02734 5.25781 4.51953 4.80078 4.69531 4.58984C4.87109 4.37891 5.08203 4.34375 5.22266 4.34375C5.32812 4.34375 5.46875 4.34375 5.57422 4.34375C5.71484 4.34375 5.85547 4.30859 6.03125 4.69531C6.17188 5.08203 6.59375 6.03125 6.62891 6.13672C6.66406 6.24219 6.69922 6.34766 6.62891 6.48828C6.27734 7.22656 5.85547 7.19141 6.06641 7.54297C6.83984 8.84375 7.57812 9.30078 8.73828 9.86328C8.91406 9.96875 9.01953 9.93359 9.16016 9.82812C9.26562 9.6875 9.65234 9.23047 9.75781 9.05469C9.89844 8.84375 10.0391 8.87891 10.2148 8.94922C10.3906 9.01953 11.3398 9.47656 11.5508 9.58203Z" fill="white"/>
</svg>
